<?xml version="1.0" encoding="utf-8"?>
<!-- Generator: Adobe Illustrator 22.0.1, SVG Export Plug-In . SVG Version: 6.00 Build 0)  -->
<svg version="1.1" xmlns="http://www.w3.org/2000/svg" xmlns:xlink="http://www.w3.org/1999/xlink" x="0px" y="0px" viewBox="0 0 618 509"
	 enable-background="new 0 0 618 509" xml:space="preserve">
		<g>
			<defs>
				<rect id="SVGID_1_" x="106.8" y="69.9" width="456" height="259.8"/>
			</defs>
			<use class="vivoint color1" xlink:href="#SVGID_1_"  overflow="visible" fill="#c4c4c4"/>
			<clipPath id="SVGID_2_">
				<use xlink:href="#SVGID_1_"  overflow="visible"/>
			</clipPath>
			<g class="vivoint color2" clip-path="url(#SVGID_2_)">
				<g>
					<g>
						<path d="M366.1,276.1c1.1-1.2,1-3.1-0.2-4.2s-3.1-1-4.2,0.2c-1.1,1.2-1,3.1,0.2,4.2S365,277.4,366.1,276.1z"/>
					</g>
				</g>
				<g>
					<g>
						<path d="M361.4,259.7c1.1-1.2,1-3.1-0.2-4.2c-1.2-1.1-3.1-1-4.2,0.2c-1.1,1.2-1,3.1,0.2,4.2
							C358.4,261,360.3,260.9,361.4,259.7z"/>
					</g>
				</g>
				<g>
					<g>
						<path d="M363.9,95.8c1.1-1.2,1-3.1-0.2-4.2c-1.2-1.1-3.1-1-4.2,0.2c-1.1,1.2-1,3.1,0.2,4.2
							S362.7,97,363.9,95.8z"/>
					</g>
				</g>
				<g>
					<g>
						<path d="M366.2,248.4c1.1-1.2,1-3.1-0.2-4.2c-1.2-1.1-3.1-1-4.2,0.2c-1.1,1.2-1,3.1,0.2,4.2
							C363.2,249.7,365.1,249.6,366.2,248.4z"/>
					</g>
				</g>
				<g>
					<g>
						<path d="M359.6,238.1c1.1-1.2,1-3.1-0.2-4.2c-1.2-1.1-3.1-1-4.2,0.2c-1.1,1.2-1,3.1,0.2,4.2
							S358.5,239.3,359.6,238.1z"/>
					</g>
				</g>
				<g>
					<g>
						<path d="M351.3,114.7c1.1-1.2,1-3.1-0.2-4.2c-1.2-1.1-3.1-1-4.2,0.2c-1.1,1.2-1,3.1,0.2,4.2
							C348.3,116.1,350.2,116,351.3,114.7z"/>
					</g>
				</g>
				<g>
					<g>
						<path d="M325,116.9c1.1-1.2,1-3.1-0.2-4.2c-1.2-1.1-3.1-1-4.2,0.2c-1.1,1.2-1,3.1,0.2,4.2
							C322,118.2,323.9,118.1,325,116.9z"/>
					</g>
				</g>
				<g>
					<g>
						<path d="M308.9,119.4c1.1-1.2,1-3.1-0.2-4.2s-3.1-1-4.2,0.2c-1.1,1.2-1,3.1,0.2,4.2
							C305.9,120.8,307.8,120.7,308.9,119.4z"/>
					</g>
				</g>
				<g>
					<g>
						<path d="M288.7,95.5c1.1-1.2,1-3.1-0.2-4.2c-1.2-1.1-3.1-1-4.2,0.2c-1.1,1.2-1,3.1,0.2,4.2
							C285.7,96.8,287.6,96.7,288.7,95.5z"/>
					</g>
				</g>
				<g>
					<g>
						<path d="M342.2,141.8c1.1-1.2,1-3.1-0.2-4.2s-3.1-1-4.2,0.2c-1.1,1.2-1,3.1,0.2,4.2
							C339.2,143.1,341.1,143,342.2,141.8z"/>
					</g>
				</g>
				<g>
					<g>
						<path d="M367.2,135.2c1.1-1.2,1-3.1-0.2-4.2c-1.2-1.1-3.1-1-4.2,0.2c-1.1,1.2-1,3.1,0.2,4.2
							C364.1,136.5,366,136.4,367.2,135.2z"/>
					</g>
				</g>
				<g>
					<g>
						<path d="M291.5,108c1.1-1.2,1-3.1-0.2-4.2c-1.2-1.1-3.1-1-4.2,0.2c-1.1,1.2-1,3.1,0.2,4.2
							C288.5,109.3,290.4,109.2,291.5,108z"/>
					</g>
				</g>
				<g>
					<g>
						<path d="M336.9,101.2c1.1-1.2,1-3.1-0.2-4.2c-1.2-1.1-3.1-1-4.2,0.2c-1.1,1.2-1,3.1,0.2,4.2
							C333.9,102.5,335.8,102.4,336.9,101.2z"/>
					</g>
				</g>
				<g>
					<g>
						<path d="M308.7,97.9c1.1-1.2,1-3.1-0.2-4.2c-1.2-1.1-3.1-1-4.2,0.2c-1.1,1.2-1,3.1,0.2,4.2
							C305.7,99.2,307.6,99.1,308.7,97.9z"/>
					</g>
				</g>
				<g>
					<g>
						<path d="M304.7,109.1c1.1-1.2,1-3.1-0.2-4.2c-1.2-1.1-3.1-1-4.2,0.2c-1.1,1.2-1,3.1,0.2,4.2
							C301.7,110.4,303.6,110.3,304.7,109.1z"/>
					</g>
				</g>
				<g>
					<g>
						<path d="M364.3,109.4c1.1-1.2,1-3.1-0.2-4.2c-1.2-1.1-3.1-1-4.2,0.2c-1.1,1.2-1,3.1,0.2,4.2
							C361.3,110.7,363.2,110.6,364.3,109.4z"/>
					</g>
				</g>
				<g>
					<g>
						<path d="M358.7,190.7c1.1-1.2,1-3.1-0.2-4.2c-1.2-1.1-3.1-1-4.2,0.2c-1.1,1.2-1,3.1,0.2,4.2
							S357.5,191.9,358.7,190.7z"/>
					</g>
				</g>
				<g>
					<g>
						<path d="M363.8,175.9c1.1-1.2,1-3.1-0.2-4.2c-1.2-1.1-3.1-1-4.2,0.2c-1.1,1.2-1,3.1,0.2,4.2
							S362.7,177.2,363.8,175.9z"/>
					</g>
				</g>
				<g>
					<g>
						<path d="M337.4,113c1.1-1.2,1-3.1-0.2-4.2c-1.2-1.1-3.1-1-4.2,0.2c-1.1,1.2-1,3.1,0.2,4.2
							C334.4,114.3,336.3,114.2,337.4,113z"/>
					</g>
				</g>
				<g>
					<g>
						<path d="M334,153.7c1.1-1.2,1-3.1-0.2-4.2c-1.2-1.1-3.1-1-4.2,0.2c-1.1,1.2-1,3.1,0.2,4.2
							C331,155,332.9,154.9,334,153.7z"/>
					</g>
				</g>
				<g>
					<g>
						<path d="M346.3,156.3c1.1-1.2,1-3.1-0.2-4.2s-3.1-1-4.2,0.2c-1.1,1.2-1,3.1,0.2,4.2
							C343.3,157.6,345.2,157.5,346.3,156.3z"/>
					</g>
				</g>
				<g>
					<g>
						<path d="M364.6,212.4c1.1-1.2,1-3.1-0.2-4.2c-1.2-1.1-3.1-1-4.2,0.2c-1.1,1.2-1,3.1,0.2,4.2
							C361.6,213.7,363.5,213.6,364.6,212.4z"/>
					</g>
				</g>
				<g>
					<g>
						<path d="M324.9,95.2c1.1-1.2,1-3.1-0.2-4.2s-3.1-1-4.2,0.2c-1.1,1.2-1,3.1,0.2,4.2
							C321.9,96.5,323.8,96.4,324.9,95.2z"/>
					</g>
				</g>
				<g>
					<g>
						<path d="M353.9,133.4c1.1-1.2,1-3.1-0.2-4.2c-1.2-1.1-3.1-1-4.2,0.2c-1.1,1.2-1,3.1,0.2,4.2
							C350.9,134.7,352.8,134.6,353.9,133.4z"/>
					</g>
				</g>
				<g>
					<g>
						<path d="M319.1,107c1.1-1.2,1-3.1-0.2-4.2c-1.2-1.1-3.1-1-4.2,0.2c-1.1,1.2-1,3.1,0.2,4.2
							C316.1,108.3,318,108.2,319.1,107z"/>
					</g>
				</g>
				<g>
					<g>
						<path d="M318.7,127c1.1-1.2,1-3.1-0.2-4.2c-1.2-1.1-3.1-1-4.2,0.2c-1.1,1.2-1,3.1,0.2,4.2
							C315.7,128.3,317.6,128.2,318.7,127z"/>
					</g>
				</g>
				<g>
					<g>
						<path d="M362.8,122.2c1.1-1.2,1-3.1-0.2-4.2c-1.2-1.1-3.1-1-4.2,0.2c-1.1,1.2-1,3.1,0.2,4.2
							C359.8,123.5,361.7,123.4,362.8,122.2z"/>
					</g>
				</g>
				<g>
					<g>
						<path d="M350.9,176.8c1.1-1.2,1-3.1-0.2-4.2c-1.2-1.1-3.1-1-4.2,0.2c-1.1,1.2-1,3.1,0.2,4.2
							S349.8,178,350.9,176.8z"/>
					</g>
				</g>
				<g>
					<g>
						<path d="M350.6,102.1c1.1-1.2,1-3.1-0.2-4.2c-1.2-1.1-3.1-1-4.2,0.2c-1.1,1.2-1,3.1,0.2,4.2
							C347.6,103.5,349.5,103.4,350.6,102.1z"/>
					</g>
				</g>
				<g>
					<g>
						<path d="M328.2,141.8c1.1-1.2,1-3.1-0.2-4.2s-3.1-1-4.2,0.2c-1.1,1.2-1,3.1,0.2,4.2
							C325.2,143.1,327.1,143,328.2,141.8z"/>
					</g>
				</g>
				<g>
					<g>
						<path d="M344.6,125.3c1.1-1.2,1-3.1-0.2-4.2s-3.1-1-4.2,0.2c-1.1,1.2-1,3.1,0.2,4.2
							C341.6,126.6,343.5,126.5,344.6,125.3z"/>
					</g>
				</g>
				<g>
					<g>
						<path d="M302.1,130.7c1.1-1.2,1-3.1-0.2-4.2c-1.2-1.1-3.1-1-4.2,0.2c-1.1,1.2-1,3.1,0.2,4.2
							S301,132,302.1,130.7z"/>
					</g>
				</g>
				<g>
					<g>
						<path d="M338.9,168.5c1.1-1.2,1-3.1-0.2-4.2c-1.2-1.1-3.1-1-4.2,0.2c-1.1,1.2-1,3.1,0.2,4.2
							C335.9,169.9,337.8,169.8,338.9,168.5z"/>
					</g>
				</g>
				<g>
					<g>
						<path d="M360.9,225.8c1.1-1.2,1-3.1-0.2-4.2c-1.2-1.1-3.1-1-4.2,0.2c-1.1,1.2-1,3.1,0.2,4.2
							C357.9,227.1,359.8,227,360.9,225.8z"/>
					</g>
				</g>
				<g>
					<g>
						<path d="M355.7,147.2c1.1-1.2,1-3.1-0.2-4.2c-1.2-1.1-3.1-1-4.2,0.2c-1.1,1.2-1,3.1,0.2,4.2
							C352.7,148.5,354.6,148.4,355.7,147.2z"/>
					</g>
				</g>
				<g>
					<g>
						<path d="M356.5,163.5c1.1-1.2,1-3.1-0.2-4.2s-3.1-1-4.2,0.2c-1.1,1.2-1,3.1,0.2,4.2
							C353.5,164.8,355.4,164.7,356.5,163.5z"/>
					</g>
				</g>
				<g>
					<g>
						<path d="M332.7,129.9c1.1-1.2,1-3.1-0.2-4.2s-3.1-1-4.2,0.2c-1.1,1.2-1,3.1,0.2,4.2
							C329.7,131.2,331.6,131.1,332.7,129.9z"/>
					</g>
				</g>
				<g>
					<g>
						<path d="M292.8,120c1.1-1.2,1-3.1-0.2-4.2c-1.2-1.1-3.1-1-4.2,0.2c-1.1,1.2-1,3.1,0.2,4.2
							C289.8,121.3,291.7,121.2,292.8,120z"/>
					</g>
				</g>
				<g>
					<g>
						<path d="M315.4,139.6c1.1-1.2,1-3.1-0.2-4.2c-1.2-1.1-3.1-1-4.2,0.2c-1.1,1.2-1,3.1,0.2,4.2
							C312.4,141,314.3,140.9,315.4,139.6z"/>
					</g>
				</g>
				<g>
					<g>
						<path d="M313.5,166.8c1.1-1.2,1-3.1-0.2-4.2c-1.2-1.1-3.1-1-4.2,0.2c-1.1,1.2-1,3.1,0.2,4.2
							C310.5,168.1,312.4,168.1,313.5,166.8z"/>
					</g>
				</g>
				<g>
					<g>
						<path d="M288.7,140.4c1.1-1.2,1-3.1-0.2-4.2s-3.1-1-4.2,0.2c-1.1,1.2-1,3.1,0.2,4.2
							C285.6,141.8,287.5,141.7,288.7,140.4z"/>
					</g>
				</g>
				<g>
					<g>
						<path d="M298.3,164.4c1.1-1.2,1-3.1-0.2-4.2c-1.2-1.1-3.1-1-4.2,0.2c-1.1,1.2-1,3.1,0.2,4.2
							S297.2,165.6,298.3,164.4z"/>
					</g>
				</g>
				<g>
					<g>
						<path d="M320.9,154.1c1.1-1.2,1-3.1-0.2-4.2s-3.1-1-4.2,0.2c-1.1,1.2-1,3.1,0.2,4.2
							C317.9,155.4,319.8,155.3,320.9,154.1z"/>
					</g>
				</g>
				<g>
					<g>
						<path d="M292.5,153.7c1.1-1.2,1-3.1-0.2-4.2s-3.1-1-4.2,0.2c-1.1,1.2-1,3.1,0.2,4.2
							C289.5,155.1,291.4,155,292.5,153.7z"/>
					</g>
				</g>
				<g>
					<g>
						<path d="M331.2,178.3c1.1-1.2,1-3.1-0.2-4.2s-3.1-1-4.2,0.2c-1.1,1.2-1,3.1,0.2,4.2
							C328.2,179.7,330.1,179.6,331.2,178.3z"/>
					</g>
				</g>
				<g>
					<g>
						<path d="M301.9,142.5c1.1-1.2,1-3.1-0.2-4.2c-1.2-1.1-3.1-1-4.2,0.2c-1.1,1.2-1,3.1,0.2,4.2
							S300.8,143.8,301.9,142.5z"/>
					</g>
				</g>
				<g>
					<g>
						<path d="M324.8,168.2c1.1-1.2,1-3.1-0.2-4.2c-1.2-1.1-3.1-1-4.2,0.2c-1.1,1.2-1,3.1,0.2,4.2
							C321.8,169.5,323.7,169.4,324.8,168.2z"/>
					</g>
				</g>
				<g>
					<g>
						<path d="M308,153.2c1.1-1.2,1-3.1-0.2-4.2c-1.2-1.1-3.1-1-4.2,0.2c-1.1,1.2-1,3.1,0.2,4.2
							C305,154.5,306.9,154.4,308,153.2z"/>
					</g>
				</g>
			</g>
		</g>
		<path fill="none" stroke="#1F140F" stroke-width="1.441" stroke-miterlimit="10" d="M301.1,344.7v102.5 M562.8,329.7h-456V69.9
			h456V329.7z"/>
		<g>
			<defs>
				<rect id="SVGID_3_" x="362.9" y="86.3" width="202.4" height="246.5"/>
			</defs>
			<use class="forroint color1" xlink:href="#SVGID_3_"  overflow="visible" fill="#c4c4c4"/>
			<clipPath id="SVGID_4_">
				<use xlink:href="#SVGID_3_"  overflow="visible"/>
			</clipPath>
			<g class="forroint color2" clip-path="url(#SVGID_4_)">
				<g>
					<g>
						<path d="M364.9,266.4c1.1-1.2,1-3.1-0.2-4.2s-3.1-1-4.2,0.2c-1.1,1.2-1,3.1,0.2,4.2S363.8,267.7,364.9,266.4z"
							/>
					</g>
				</g>
				<g>
					<g>
						<path d="M378.2,263.5c1.1-1.2,1-3.1-0.2-4.2c-1.2-1.1-3.1-1-4.2,0.2c-1.1,1.2-1,3.1,0.2,4.2
							C375.2,264.8,377.1,264.7,378.2,263.5z"/>
					</g>
				</g>
				<g>
					<g>
						<path d="M368.4,252.7c1.1-1.2,1-3.1-0.2-4.2c-1.2-1.1-3.1-1-4.2,0.2c-1.1,1.2-1,3.1,0.2,4.2
							C365.4,254,367.3,253.9,368.4,252.7z"/>
					</g>
				</g>
				<g>
					<g>
						<path d="M370.2,225.9c1.1-1.2,1-3.1-0.2-4.2c-1.2-1.1-3.1-1-4.2,0.2c-1.1,1.2-1,3.1,0.2,4.2
							S369.1,227.1,370.2,225.9z"/>
					</g>
				</g>
				<g>
					<g>
						<path d="M377.2,215.6c1.1-1.2,1-3.1-0.2-4.2c-1.2-1.1-3.1-1-4.2,0.2c-1.1,1.2-1,3.1,0.2,4.2
							C374.1,216.9,376,216.8,377.2,215.6z"/>
					</g>
				</g>
				<g>
					<g>
						<path d="M389.6,219.3c1.1-1.2,1-3.1-0.2-4.2c-1.2-1.1-3.1-1-4.2,0.2c-1.1,1.2-1,3.1,0.2,4.2
							C386.6,220.7,388.5,220.6,389.6,219.3z"/>
					</g>
				</g>
				<g>
					<g>
						<path d="M370.5,203.1c1.1-1.2,1-3.1-0.2-4.2c-1.2-1.1-3.1-1-4.2,0.2c-1.1,1.2-1,3.1,0.2,4.2
							S369.4,204.4,370.5,203.1z"/>
					</g>
				</g>
				<g>
					<g>
						<path d="M384.6,203.6c1.1-1.2,1-3.1-0.2-4.2s-3.1-1-4.2,0.2c-1.1,1.2-1,3.1,0.2,4.2
							C381.6,205,383.4,204.9,384.6,203.6z"/>
					</g>
				</g>
				<g>
					<g>
						<path d="M370.9,189.3c1.1-1.2,1-3.1-0.2-4.2s-3.1-1-4.2,0.2c-1.1,1.2-1,3.1,0.2,4.2
							C367.9,190.6,369.8,190.5,370.9,189.3z"/>
					</g>
				</g>
				<g>
					<g>
						<path d="M372.4,164.6c1.1-1.2,1-3.1-0.2-4.2c-1.2-1.1-3.1-1-4.2,0.2c-1.1,1.2-1,3.1,0.2,4.2
							S371.3,165.9,372.4,164.6z"/>
					</g>
				</g>
				<g>
					<g>
						<path d="M367.8,177.1c1.1-1.2,1-3.1-0.2-4.2c-1.2-1.1-3.1-1-4.2,0.2c-1.1,1.2-1,3.1,0.2,4.2
							S366.7,178.3,367.8,177.1z"/>
					</g>
				</g>
				<g>
					<g>
						<path d="M383.6,190.4c1.1-1.2,1-3.1-0.2-4.2s-3.1-1-4.2,0.2c-1.1,1.2-1,3.1,0.2,4.2
							C380.6,191.7,382.4,191.6,383.6,190.4z"/>
					</g>
				</g>
				<g>
					<g>
						<path d="M398.7,152.4c1.1-1.2,1-3.1-0.2-4.2s-3.1-1-4.2,0.2c-1.1,1.2-1,3.1,0.2,4.2
							C395.7,153.8,397.6,153.7,398.7,152.4z"/>
					</g>
				</g>
				<g>
					<g>
						<path d="M370.1,151.6c1.1-1.2,1-3.1-0.2-4.2c-1.2-1.1-3.1-1-4.2,0.2c-1.1,1.2-1,3.1,0.2,4.2
							S369,152.8,370.1,151.6z"/>
					</g>
				</g>
				<g>
					<g>
						<path d="M400.4,165.4c1.1-1.2,1-3.1-0.2-4.2c-1.2-1.1-3.1-1-4.2,0.2c-1.1,1.2-1,3.1,0.2,4.2
							C397.4,166.7,399.3,166.6,400.4,165.4z"/>
					</g>
				</g>
				<g>
					<g>
						<path d="M417.5,168.6c1.1-1.2,1-3.1-0.2-4.2s-3.1-1-4.2,0.2c-1.1,1.2-1,3.1,0.2,4.2S416.4,169.8,417.5,168.6z"
							/>
					</g>
				</g>
				<g>
					<g>
						<path d="M450.3,169.9c1.1-1.2,1-3.1-0.2-4.2c-1.2-1.1-3.1-1-4.2,0.2c-1.1,1.2-1,3.1,0.2,4.2
							C447.3,171.2,449.2,171.1,450.3,169.9z"/>
					</g>
				</g>
				<g>
					<g>
						<path d="M462.3,167.8c1.1-1.2,1-3.1-0.2-4.2c-1.2-1.1-3.1-1-4.2,0.2c-1.1,1.2-1,3.1,0.2,4.2
							C459.3,169.1,461.2,169,462.3,167.8z"/>
					</g>
				</g>
				<g>
					<g>
						<path d="M485.8,163.1c1.1-1.2,1-3.1-0.2-4.2s-3.1-1-4.2,0.2c-1.1,1.2-1,3.1,0.2,4.2
							C482.8,164.4,484.7,164.3,485.8,163.1z"/>
					</g>
				</g>
				<g>
					<g>
						<path d="M505.3,151.5c1.1-1.2,1-3.1-0.2-4.2s-3.1-1-4.2,0.2c-1.1,1.2-1,3.1,0.2,4.2
							C502.3,152.8,504.2,152.7,505.3,151.5z"/>
					</g>
				</g>
				<g>
					<g>
						<path d="M413.1,146.4c1.1-1.2,1-3.1-0.2-4.2c-1.2-1.1-3.1-1-4.2,0.2c-1.1,1.2-1,3.1,0.2,4.2
							C410,147.7,411.9,147.6,413.1,146.4z"/>
					</g>
				</g>
				<g>
					<g>
						<path d="M376.4,139.1c1.1-1.2,1-3.1-0.2-4.2s-3.1-1-4.2,0.2c-1.1,1.2-1,3.1,0.2,4.2S375.3,140.3,376.4,139.1z"
							/>
					</g>
				</g>
				<g>
					<g>
						<path d="M387.3,163.1c1.1-1.2,1-3.1-0.2-4.2s-3.1-1-4.2,0.2c-1.1,1.2-1,3.1,0.2,4.2
							C384.3,164.4,386.2,164.3,387.3,163.1z"/>
					</g>
				</g>
				<g>
					<g>
						<path d="M494.1,154.8c1.1-1.2,1-3.1-0.2-4.2s-3.1-1-4.2,0.2c-1.1,1.2-1,3.1,0.2,4.2
							C491.1,156.1,493,156,494.1,154.8z"/>
					</g>
				</g>
				<g>
					<g>
						<path d="M437,135c1.1-1.2,1-3.1-0.2-4.2c-1.2-1.1-3.1-1-4.2,0.2c-1.1,1.2-1,3.1,0.2,4.2
							C434,136.3,435.9,136.2,437,135z"/>
					</g>
				</g>
				<g>
					<g>
						<path d="M424.3,199.9c1.1-1.2,1-3.1-0.2-4.2c-1.2-1.1-3.1-1-4.2,0.2c-1.1,1.2-1,3.1,0.2,4.2
							C421.3,201.2,423.2,201.1,424.3,199.9z"/>
					</g>
				</g>
				<g>
					<g>
						<path d="M418.6,182.4c1.1-1.2,1-3.1-0.2-4.2c-1.2-1.1-3.1-1-4.2,0.2c-1.1,1.2-1,3.1,0.2,4.2
							C415.6,183.7,417.5,183.6,418.6,182.4z"/>
					</g>
				</g>
				<g>
					<g>
						<path d="M412.8,194.1c1.1-1.2,1-3.1-0.2-4.2c-1.2-1.1-3.1-1-4.2,0.2c-1.1,1.2-1,3.1,0.2,4.2
							S411.7,195.3,412.8,194.1z"/>
					</g>
				</g>
				<g>
					<g>
						<path d="M474.6,176.4c1.1-1.2,1-3.1-0.2-4.2c-1.2-1.1-3.1-1-4.2,0.2c-1.1,1.2-1,3.1,0.2,4.2
							C471.6,177.7,473.5,177.6,474.6,176.4z"/>
					</g>
				</g>
				<g>
					<g>
						<path d="M398.6,204.3c1.1-1.2,1-3.1-0.2-4.2c-1.2-1.1-3.1-1-4.2,0.2c-1.1,1.2-1,3.1,0.2,4.2
							C395.6,205.6,397.5,205.5,398.6,204.3z"/>
					</g>
				</g>
				<g>
					<g>
						<path d="M411,206.9c1.1-1.2,1-3.1-0.2-4.2s-3.1-1-4.2,0.2c-1.1,1.2-1,3.1,0.2,4.2
							C408,208.2,409.9,208.1,411,206.9z"/>
					</g>
				</g>
				<g>
					<g>
						<path d="M432.6,207.2c1.1-1.2,1-3.1-0.2-4.2c-1.2-1.1-3.1-1-4.2,0.2c-1.1,1.2-1,3.1,0.2,4.2
							C429.6,208.5,431.5,208.4,432.6,207.2z"/>
					</g>
				</g>
				<g>
					<g>
						<path d="M404.3,218.6c1.1-1.2,1-3.1-0.2-4.2c-1.2-1.1-3.1-1-4.2,0.2c-1.1,1.2-1,3.1,0.2,4.2
							C401.3,220,403.2,219.9,404.3,218.6z"/>
					</g>
				</g>
				<g>
					<g>
						<path d="M394.5,234.1c1.1-1.2,1-3.1-0.2-4.2s-3.1-1-4.2,0.2c-1.1,1.2-1,3.1,0.2,4.2
							C391.5,235.5,393.4,235.4,394.5,234.1z"/>
					</g>
				</g>
				<g>
					<g>
						<path d="M371.7,239.4c1.1-1.2,1-3.1-0.2-4.2c-1.2-1.1-3.1-1-4.2,0.2c-1.1,1.2-1,3.1,0.2,4.2
							C368.7,240.7,370.6,240.6,371.7,239.4z"/>
					</g>
				</g>
				<g>
					<g>
						<path d="M381.4,249.1c1.1-1.2,1-3.1-0.2-4.2c-1.2-1.1-3.1-1-4.2,0.2c-1.1,1.2-1,3.1,0.2,4.2
							C378.4,250.5,380.3,250.4,381.4,249.1z"/>
					</g>
				</g>
				<g>
					<g>
						<path d="M382.5,232.7c1.1-1.2,1-3.1-0.2-4.2c-1.2-1.1-3.1-1-4.2,0.2c-1.1,1.2-1,3.1,0.2,4.2
							C379.5,234.1,381.4,234,382.5,232.7z"/>
					</g>
				</g>
				<g>
					<g>
						<path d="M372.5,124.7c1.1-1.2,1-3.1-0.2-4.2c-1.2-1.1-3.1-1-4.2,0.2c-1.1,1.2-1,3.1,0.2,4.2
							C369.5,126.1,371.4,126,372.5,124.7z"/>
					</g>
				</g>
				<g>
					<g>
						<path d="M390.3,116.4c1.1-1.2,1-3.1-0.2-4.2s-3.1-1-4.2,0.2c-1.1,1.2-1,3.1,0.2,4.2
							C387.3,117.8,389.2,117.7,390.3,116.4z"/>
					</g>
				</g>
				<g>
					<g>
						<path d="M415.9,122.4c1.1-1.2,1-3.1-0.2-4.2s-3.1-1-4.2,0.2c-1.1,1.2-1,3.1,0.2,4.2
							C412.9,123.7,414.8,123.6,415.9,122.4z"/>
					</g>
				</g>
				<g>
					<g>
						<path d="M490,140.9c1.1-1.2,1-3.1-0.2-4.2c-1.2-1.1-3.1-1-4.2,0.2c-1.1,1.2-1,3.1,0.2,4.2
							S488.9,142.2,490,140.9z"/>
					</g>
				</g>
				<g>
					<g>
						<path d="M475.5,136.5c1.1-1.2,1-3.1-0.2-4.2s-3.1-1-4.2,0.2c-1.1,1.2-1,3.1,0.2,4.2
							C472.5,137.8,474.4,137.7,475.5,136.5z"/>
					</g>
				</g>
				<g>
					<g>
						<path d="M435.4,122.9c1.1-1.2,1-3.1-0.2-4.2c-1.2-1.1-3.1-1-4.2,0.2c-1.1,1.2-1,3.1,0.2,4.2
							C432.4,124.2,434.2,124.1,435.4,122.9z"/>
					</g>
				</g>
				<g>
					<g>
						<path d="M418.5,109.3c1.1-1.2,1-3.1-0.2-4.2c-1.2-1.1-3.1-1-4.2,0.2c-1.1,1.2-1,3.1,0.2,4.2
							C415.5,110.6,417.4,110.5,418.5,109.3z"/>
					</g>
				</g>
				<g>
					<g>
						<path d="M450.7,126.2c1.1-1.2,1-3.1-0.2-4.2c-1.2-1.1-3.1-1-4.2,0.2c-1.1,1.2-1,3.1,0.2,4.2
							C447.6,127.6,449.5,127.5,450.7,126.2z"/>
					</g>
				</g>
				<g>
					<g>
						<path d="M429.8,113.5c1.1-1.2,1-3.1-0.2-4.2c-1.2-1.1-3.1-1-4.2,0.2c-1.1,1.2-1,3.1,0.2,4.2
							C426.8,114.8,428.7,114.7,429.8,113.5z"/>
					</g>
				</g>
				<g>
					<g>
						<path d="M465.7,146.8c1.1-1.2,1-3.1-0.2-4.2c-1.2-1.1-3.1-1-4.2,0.2c-1.1,1.2-1,3.1,0.2,4.2
							C462.7,148.1,464.6,148,465.7,146.8z"/>
					</g>
				</g>
				<g>
					<g>
						<path d="M462.1,133.4c1.1-1.2,1-3.1-0.2-4.2s-3.1-1-4.2,0.2c-1.1,1.2-1,3.1,0.2,4.2
							C459.1,134.7,461,134.6,462.1,133.4z"/>
					</g>
				</g>
				<g>
					<g>
						<path d="M444.3,158.1c1.1-1.2,1-3.1-0.2-4.2c-1.2-1.1-3.1-1-4.2,0.2c-1.1,1.2-1,3.1,0.2,4.2
							C441.3,159.4,443.2,159.3,444.3,158.1z"/>
					</g>
				</g>
				<g>
					<g>
						<path d="M428.2,159.6c1.1-1.2,1-3.1-0.2-4.2s-3.1-1-4.2,0.2c-1.1,1.2-1,3.1,0.2,4.2
							C425.2,160.9,427.1,160.8,428.2,159.6z"/>
					</g>
				</g>
				<g>
					<g>
						<path d="M478.3,150.4c1.1-1.2,1-3.1-0.2-4.2c-1.2-1.1-3.1-1-4.2,0.2c-1.1,1.2-1,3.1,0.2,4.2
							S477.2,151.6,478.3,150.4z"/>
					</g>
				</g>
				<g>
					<g>
						<path d="M435.6,170.3c1.1-1.2,1-3.1-0.2-4.2s-3.1-1-4.2,0.2c-1.1,1.2-1,3.1,0.2,4.2
							C432.6,171.6,434.5,171.5,435.6,170.3z"/>
					</g>
				</g>
				<g>
					<g>
						<path d="M451.4,141.5c1.1-1.2,1-3.1-0.2-4.2c-1.2-1.1-3.1-1-4.2,0.2c-1.1,1.2-1,3.1,0.2,4.2
							C448.4,142.8,450.3,142.7,451.4,141.5z"/>
					</g>
				</g>
				<g>
					<g>
						<path d="M426.3,146.2c1.1-1.2,1-3.1-0.2-4.2c-1.2-1.1-3.1-1-4.2,0.2c-1.1,1.2-1,3.1,0.2,4.2
							S425.2,147.4,426.3,146.2z"/>
					</g>
				</g>
				<g>
					<g>
						<path d="M457.3,155.4c1.1-1.2,1-3.1-0.2-4.2c-1.2-1.1-3.1-1-4.2,0.2c-1.1,1.2-1,3.1,0.2,4.2
							C454.3,156.8,456.2,156.7,457.3,155.4z"/>
					</g>
				</g>
				<g>
					<g>
						<path d="M412,158.5c1.1-1.2,1-3.1-0.2-4.2c-1.2-1.1-3.1-1-4.2,0.2c-1.1,1.2-1,3.1,0.2,4.2
							C409,159.9,410.9,159.8,412,158.5z"/>
					</g>
				</g>
				<g>
					<g>
						<path d="M383.7,151c1.1-1.2,1-3.1-0.2-4.2c-1.2-1.1-3.1-1-4.2,0.2c-1.1,1.2-1,3.1,0.2,4.2
							S382.6,152.2,383.7,151z"/>
					</g>
				</g>
				<g>
					<g>
						<path d="M398.2,190.9c1.1-1.2,1-3.1-0.2-4.2c-1.2-1.1-3.1-1-4.2,0.2c-1.1,1.2-1,3.1,0.2,4.2
							S397.1,192.1,398.2,190.9z"/>
					</g>
				</g>
				<g>
					<g>
						<path d="M381.5,175.4c1.1-1.2,1-3.1-0.2-4.2s-3.1-1-4.2,0.2c-1.1,1.2-1,3.1,0.2,4.2
							C378.5,176.7,380.4,176.6,381.5,175.4z"/>
					</g>
				</g>
				<g>
					<g>
						<path d="M392.7,177.7c1.1-1.2,1-3.1-0.2-4.2s-3.1-1-4.2,0.2c-1.1,1.2-1,3.1,0.2,4.2
							C389.7,179,391.6,178.9,392.7,177.7z"/>
					</g>
				</g>
				<g>
					<g>
						<path d="M406.1,137.3c1.1-1.2,1-3.1-0.2-4.2c-1.2-1.1-3.1-1-4.2,0.2c-1.1,1.2-1,3.1,0.2,4.2
							C403.1,138.6,405,138.5,406.1,137.3z"/>
					</g>
				</g>
				<g>
					<g>
						<path d="M406,177.5c1.1-1.2,1-3.1-0.2-4.2c-1.2-1.1-3.1-1-4.2,0.2c-1.1,1.2-1,3.1,0.2,4.2
							S404.9,178.7,406,177.5z"/>
					</g>
				</g>
				<g>
					<g>
						<path d="M439.4,147.2c1.1-1.2,1-3.1-0.2-4.2s-3.1-1-4.2,0.2c-1.1,1.2-1,3.1,0.2,4.2
							C436.4,148.5,438.3,148.4,439.4,147.2z"/>
					</g>
				</g>
				<g>
					<g>
						<path d="M421.1,133.7c1.1-1.2,1-3.1-0.2-4.2c-1.2-1.1-3.1-1-4.2,0.2c-1.1,1.2-1,3.1,0.2,4.2
							C418.1,135,420,134.9,421.1,133.7z"/>
					</g>
				</g>
				<g>
					<g>
						<path d="M392.5,140.6c1.1-1.2,1-3.1-0.2-4.2s-3.1-1-4.2,0.2c-1.1,1.2-1,3.1,0.2,4.2
							C389.4,141.9,391.3,141.8,392.5,140.6z"/>
					</g>
				</g>
				<g>
					<g>
						<path d="M385.9,129.2c1.1-1.2,1-3.1-0.2-4.2c-1.2-1.1-3.1-1-4.2,0.2c-1.1,1.2-1,3.1,0.2,4.2
							C382.9,130.5,384.8,130.4,385.9,129.2z"/>
					</g>
				</g>
				<g>
					<g>
						<path d="M400.5,126.3c1.1-1.2,1-3.1-0.2-4.2c-1.2-1.1-3.1-1-4.2,0.2c-1.1,1.2-1,3.1,0.2,4.2
							C397.5,127.7,399.4,127.6,400.5,126.3z"/>
					</g>
				</g>
				<g>
					<g>
						<path d="M404.5,114.1c1.1-1.2,1-3.1-0.2-4.2c-1.2-1.1-3.1-1-4.2,0.2c-1.1,1.2-1,3.1,0.2,4.2
							C401.5,115.5,403.4,115.4,404.5,114.1z"/>
					</g>
				</g>
				<g>
					<g>
						<path d="M376.3,112.3c1.1-1.2,1-3.1-0.2-4.2s-3.1-1-4.2,0.2c-1.1,1.2-1,3.1,0.2,4.2
							C373.3,113.7,375.2,113.6,376.3,112.3z"/>
					</g>
				</g>
				<g>
					<g>
						<path d="M387.4,103.9c1.1-1.2,1-3.1-0.2-4.2s-3.1-1-4.2,0.2c-1.1,1.2-1,3.1,0.2,4.2S386.3,105.1,387.4,103.9z"
							/>
					</g>
				</g>
				<g>
					<g>
						<path d="M416,96.5c1.1-1.2,1-3.1-0.2-4.2c-1.2-1.1-3.1-1-4.2,0.2c-1.1,1.2-1,3.1,0.2,4.2
							C412.9,97.8,414.8,97.7,416,96.5z"/>
					</g>
				</g>
				<g>
					<g>
						<path d="M402.7,101.6c1.1-1.2,1-3.1-0.2-4.2s-3.1-1-4.2,0.2c-1.1,1.2-1,3.1,0.2,4.2
							C399.7,102.9,401.6,102.8,402.7,101.6z"/>
					</g>
				</g>
				<g>
					<g>
						<path d="M373.6,96.6c1.1-1.2,1-3.1-0.2-4.2s-3.1-1-4.2,0.2c-1.1,1.2-1,3.1,0.2,4.2S372.5,97.8,373.6,96.6z"/>
					</g>
				</g>
				<g>
					<g>
						<path d="M531.1,125.4c1.1-1.2,1-3.1-0.2-4.2c-1.2-1.1-3.1-1-4.2,0.2c-1.1,1.2-1,3.1,0.2,4.2
							C528.1,126.7,530,126.6,531.1,125.4z"/>
					</g>
				</g>
				<g>
					<g>
						<path d="M507.8,138.4c1.1-1.2,1-3.1-0.2-4.2c-1.2-1.1-3.1-1-4.2,0.2c-1.1,1.2-1,3.1,0.2,4.2
							S506.7,139.7,507.8,138.4z"/>
					</g>
				</g>
				<g>
					<g>
						<path d="M500,130.5c1.1-1.2,1-3.1-0.2-4.2s-3.1-1-4.2,0.2c-1.1,1.2-1,3.1,0.2,4.2
							C497,131.8,498.9,131.7,500,130.5z"/>
					</g>
				</g>
				<g>
					<g>
						<path d="M440.9,103.1c1.1-1.2,1-3.1-0.2-4.2c-1.2-1.1-3.1-1-4.2,0.2c-1.1,1.2-1,3.1,0.2,4.2
							C437.9,104.4,439.8,104.3,440.9,103.1z"/>
					</g>
				</g>
				<g>
					<g>
						<path d="M518.9,144.7c1.1-1.2,1-3.1-0.2-4.2c-1.2-1.1-3.1-1-4.2,0.2c-1.1,1.2-1,3.1,0.2,4.2
							C515.9,146.1,517.8,146,518.9,144.7z"/>
					</g>
				</g>
				<g>
					<g>
						<path d="M485,127.1c1.1-1.2,1-3.1-0.2-4.2c-1.2-1.1-3.1-1-4.2,0.2c-1.1,1.2-1,3.1,0.2,4.2
							C482,128.4,483.9,128.3,485,127.1z"/>
					</g>
				</g>
				<g>
					<g>
						<path d="M455.5,103.2c1.1-1.2,1-3.1-0.2-4.2c-1.2-1.1-3.1-1-4.2,0.2c-1.1,1.2-1,3.1,0.2,4.2
							C452.5,104.5,454.4,104.4,455.5,103.2z"/>
					</g>
				</g>
				<g>
					<g>
						<path d="M448.5,113.9c1.1-1.2,1-3.1-0.2-4.2s-3.1-1-4.2,0.2c-1.1,1.2-1,3.1,0.2,4.2
							C445.5,115.2,447.4,115.1,448.5,113.9z"/>
					</g>
				</g>
				<g>
					<g>
						<path d="M497.7,119.6c1.1-1.2,1-3.1-0.2-4.2c-1.2-1.1-3.1-1-4.2,0.2c-1.1,1.2-1,3.1,0.2,4.2
							C494.7,120.9,496.6,120.8,497.7,119.6z"/>
					</g>
				</g>
				<g>
					<g>
						<path d="M474,106.3c1.1-1.2,1-3.1-0.2-4.2c-1.2-1.1-3.1-1-4.2,0.2c-1.1,1.2-1,3.1,0.2,4.2
							C471,107.7,472.9,107.6,474,106.3z"/>
					</g>
				</g>
				<g>
					<g>
						<path d="M471.3,122.2c1.1-1.2,1-3.1-0.2-4.2c-1.2-1.1-3.1-1-4.2,0.2c-1.1,1.2-1,3.1,0.2,4.2
							C468.3,123.5,470.2,123.4,471.3,122.2z"/>
					</g>
				</g>
				<g>
					<g>
						<path d="M500.6,106.7c1.1-1.2,1-3.1-0.2-4.2c-1.2-1.1-3.1-1-4.2,0.2c-1.1,1.2-1,3.1,0.2,4.2
							C497.6,108.1,499.5,108,500.6,106.7z"/>
					</g>
				</g>
				<g>
					<g>
						<path d="M462.6,112.6c1.1-1.2,1-3.1-0.2-4.2c-1.2-1.1-3.1-1-4.2,0.2c-1.1,1.2-1,3.1,0.2,4.2
							C459.6,113.9,461.5,113.8,462.6,112.6z"/>
					</g>
				</g>
				<g>
					<g>
						<path d="M522.8,114c1.1-1.2,1-3.1-0.2-4.2c-1.2-1.1-3.1-1-4.2,0.2s-1,3.1,0.2,4.2
							C519.8,115.3,521.7,115.2,522.8,114z"/>
					</g>
				</g>
				<g>
					<g>
						<path d="M485.5,113.5c1.1-1.2,1-3.1-0.2-4.2c-1.2-1.1-3.1-1-4.2,0.2c-1.1,1.2-1,3.1,0.2,4.2
							C482.5,114.8,484.4,114.7,485.5,113.5z"/>
					</g>
				</g>
				<g>
					<g>
						<path d="M512.4,119.6c1.1-1.2,1-3.1-0.2-4.2c-1.2-1.1-3.1-1-4.2,0.2c-1.1,1.2-1,3.1,0.2,4.2
							S511.3,120.8,512.4,119.6z"/>
					</g>
				</g>
				<g>
					<g>
						<path d="M522,130.7c1.1-1.2,1-3.1-0.2-4.2c-1.2-1.1-3.1-1-4.2,0.2c-1.1,1.2-1,3.1,0.2,4.2
							C519,132.1,520.9,132,522,130.7z"/>
					</g>
				</g>
				<g>
					<g>
						<path d="M538.6,114.3c1.1-1.2,1-3.1-0.2-4.2c-1.2-1.1-3.1-1-4.2,0.2s-1,3.1,0.2,4.2
							C535.5,115.7,537.4,115.6,538.6,114.3z"/>
					</g>
				</g>
				<g>
					<g>
						<path d="M549,123.5c1.1-1.2,1-3.1-0.2-4.2c-1.2-1.1-3.1-1-4.2,0.2c-1.1,1.2-1,3.1,0.2,4.2
							C546,124.9,547.9,124.8,549,123.5z"/>
					</g>
				</g>
				<g>
					<g>
						<path d="M464.8,181.8c1.1-1.2,1-3.1-0.2-4.2c-1.2-1.1-3.1-1-4.2,0.2c-1.1,1.2-1,3.1,0.2,4.2
							C461.8,183.1,463.7,183,464.8,181.8z"/>
					</g>
				</g>
				<g>
					<g>
						<path d="M453.2,192.1c1.1-1.2,1-3.1-0.2-4.2c-1.2-1.1-3.1-1-4.2,0.2c-1.1,1.2-1,3.1,0.2,4.2
							C450.1,193.4,452,193.3,453.2,192.1z"/>
					</g>
				</g>
				<g>
					<g>
						<path d="M473.9,164.6c1.1-1.2,1-3.1-0.2-4.2s-3.1-1-4.2,0.2c-1.1,1.2-1,3.1,0.2,4.2
							C470.9,165.9,472.8,165.8,473.9,164.6z"/>
					</g>
				</g>
				<g>
					<g>
						<path d="M419.6,216.8c1.1-1.2,1-3.1-0.2-4.2c-1.2-1.1-3.1-1-4.2,0.2c-1.1,1.2-1,3.1,0.2,4.2
							C416.5,218.1,418.4,218,419.6,216.8z"/>
					</g>
				</g>
				<g>
					<g>
						<path d="M435.4,193.1c1.1-1.2,1-3.1-0.2-4.2c-1.2-1.1-3.1-1-4.2,0.2c-1.1,1.2-1,3.1,0.2,4.2
							C432.4,194.5,434.3,194.4,435.4,193.1z"/>
					</g>
				</g>
				<g>
					<g>
						<path d="M431.2,181.9c1.1-1.2,1-3.1-0.2-4.2c-1.2-1.1-3.1-1-4.2,0.2c-1.1,1.2-1,3.1,0.2,4.2
							C428.2,183.2,430.1,183.1,431.2,181.9z"/>
					</g>
				</g>
				<g>
					<g>
						<path d="M446.9,182.8c1.1-1.2,1-3.1-0.2-4.2s-3.1-1-4.2,0.2c-1.1,1.2-1,3.1,0.2,4.2
							C443.9,184.1,445.8,184,446.9,182.8z"/>
					</g>
				</g>
			</g>
		</g>
		
			<rect x="362.9" y="86.3" fill="none" stroke="#1F140F" stroke-width="1.441" stroke-miterlimit="10" width="202.4" height="246.5"/>
		<g>
			<defs>
				<rect id="SVGID_5_" x="84" y="86.3" width="202.4" height="246.5"/>
			</defs>
			<use class="forroint color1" xlink:href="#SVGID_5_"  overflow="visible" fill="#c4c4c4"/>
			<clipPath id="SVGID_6_">
				<use xlink:href="#SVGID_5_"  overflow="visible"/>
			</clipPath>
			<g class="forroint color2" clip-path="url(#SVGID_6_)">
				<g>
					<g>
						<path d="M215.9,141.8c1.1-1.2,1-3.1-0.2-4.2c-1.2-1.1-3.1-1-4.2,0.2c-1.1,1.2-1,3.1,0.2,4.2
							C212.9,143.2,214.7,143.1,215.9,141.8z"/>
					</g>
				</g>
				<g>
					<g>
						<path d="M288.8,124.3c1.1-1.2,1-3.1-0.2-4.2c-1.2-1.1-3.1-1-4.2,0.2c-1.1,1.2-1,3.1,0.2,4.2
							C285.8,125.6,287.7,125.5,288.8,124.3z"/>
					</g>
				</g>
				<g>
					<g>
						<path d="M289.3,164.6c1.1-1.2,1-3.1-0.2-4.2s-3.1-1-4.2,0.2c-1.1,1.2-1,3.1,0.2,4.2S288.1,165.9,289.3,164.6z"
							/>
					</g>
				</g>
				<g>
					<g>
						<path d="M274.1,100.7c1.1-1.2,1-3.1-0.2-4.2c-1.2-1.1-3.1-1-4.2,0.2c-1.1,1.2-1,3.1,0.2,4.2
							C271.1,102,273,101.9,274.1,100.7z"/>
					</g>
				</g>
				<g>
					<g>
						<path d="M287.6,151.6c1.1-1.2,1-3.1-0.2-4.2c-1.2-1.1-3.1-1-4.2,0.2c-1.1,1.2-1,3.1,0.2,4.2
							C284.5,153,286.4,152.9,287.6,151.6z"/>
					</g>
				</g>
				<g>
					<g>
						<path d="M277.2,140.1c1.1-1.2,1-3.1-0.2-4.2s-3.1-1-4.2,0.2c-1.1,1.2-1,3.1,0.2,4.2S276.1,141.3,277.2,140.1z"
							/>
					</g>
				</g>
				<g>
					<g>
						<path d="M277,127.1c1.1-1.2,1-3.1-0.2-4.2c-1.2-1.1-3.1-1-4.2,0.2c-1.1,1.2-1,3.1,0.2,4.2
							C274,128.4,275.9,128.3,277,127.1z"/>
					</g>
				</g>
				<g>
					<g>
						<path d="M260.3,103.9c1.1-1.2,1-3.1-0.2-4.2c-1.2-1.1-3.1-1-4.2,0.2c-1.1,1.2-1,3.1,0.2,4.2
							C257.3,105.2,259.2,105.1,260.3,103.9z"/>
					</g>
				</g>
				<g>
					<g>
						<path d="M264.7,127.4c1.1-1.2,1-3.1-0.2-4.2c-1.2-1.1-3.1-1-4.2,0.2c-1.1,1.2-1,3.1,0.2,4.2
							C261.7,128.7,263.6,128.6,264.7,127.4z"/>
					</g>
				</g>
				<g>
					<g>
						<path d="M288.4,100.2c1.1-1.2,1-3.1-0.2-4.2s-3.1-1-4.2,0.2c-1.1,1.2-1,3.1,0.2,4.2
							C285.4,101.5,287.3,101.4,288.4,100.2z"/>
					</g>
				</g>
				<g>
					<g>
						<path d="M282.7,112.4c1.1-1.2,1-3.1-0.2-4.2c-1.2-1.1-3.1-1-4.2,0.2c-1.1,1.2-1,3.1,0.2,4.2
							C279.7,113.7,281.6,113.6,282.7,112.4z"/>
					</g>
				</g>
				<g>
					<g>
						<path d="M264.2,162c1.1-1.2,1-3.1-0.2-4.2c-1.2-1.1-3.1-1-4.2,0.2c-1.1,1.2-1,3.1,0.2,4.2
							C261.2,163.3,263.1,163.2,264.2,162z"/>
					</g>
				</g>
				<g>
					<g>
						<path d="M242.8,119.4c1.1-1.2,1-3.1-0.2-4.2c-1.2-1.1-3.1-1-4.2,0.2c-1.1,1.2-1,3.1,0.2,4.2
							C239.8,120.8,241.7,120.7,242.8,119.4z"/>
					</g>
				</g>
				<g>
					<g>
						<path d="M255.4,153.4c1.1-1.2,1-3.1-0.2-4.2c-1.2-1.1-3.1-1-4.2,0.2c-1.1,1.2-1,3.1,0.2,4.2
							C252.4,154.7,254.3,154.6,255.4,153.4z"/>
					</g>
				</g>
				<g>
					<g>
						<path d="M255,115.4c1.1-1.2,1-3.1-0.2-4.2c-1.2-1.1-3.1-1-4.2,0.2c-1.1,1.2-1,3.1,0.2,4.2
							S253.9,116.7,255,115.4z"/>
					</g>
				</g>
				<g>
					<g>
						<path d="M271.4,150.8c1.1-1.2,1-3.1-0.2-4.2s-3.1-1-4.2,0.2c-1.1,1.2-1,3.1,0.2,4.2S270.3,152.1,271.4,150.8z"
							/>
					</g>
				</g>
				<g>
					<g>
						<path d="M278.8,162.4c1.1-1.2,1-3.1-0.2-4.2c-1.2-1.1-3.1-1-4.2,0.2c-1.1,1.2-1,3.1,0.2,4.2
							C275.8,163.8,277.7,163.7,278.8,162.4z"/>
					</g>
				</g>
				<g>
					<g>
						<path d="M252.2,129.9c1.1-1.2,1-3.1-0.2-4.2c-1.2-1.1-3.1-1-4.2,0.2c-1.1,1.2-1,3.1,0.2,4.2
							C249.2,131.3,251.1,131.2,252.2,129.9z"/>
					</g>
				</g>
				<g>
					<g>
						<path d="M269.4,114.6c1.1-1.2,1-3.1-0.2-4.2c-1.2-1.1-3.1-1-4.2,0.2c-1.1,1.2-1,3.1,0.2,4.2
							S268.3,115.8,269.4,114.6z"/>
					</g>
				</g>
				<g>
					<g>
						<path d="M207.8,132.7c1.1-1.2,1-3.1-0.2-4.2c-1.2-1.1-3.1-1-4.2,0.2c-1.1,1.2-1,3.1,0.2,4.2
							C204.8,134.1,206.7,134,207.8,132.7z"/>
					</g>
				</g>
				<g>
					<g>
						<path d="M228.3,104c1.1-1.2,1-3.1-0.2-4.2c-1.2-1.1-3.1-1-4.2,0.2c-1.1,1.2-1,3.1,0.2,4.2
							C225.3,105.3,227.2,105.2,228.3,104z"/>
					</g>
				</g>
				<g>
					<g>
						<path d="M238.2,133.3c1.1-1.2,1-3.1-0.2-4.2c-1.2-1.1-3.1-1-4.2,0.2c-1.1,1.2-1,3.1,0.2,4.2
							C235.1,134.6,237,134.6,238.2,133.3z"/>
					</g>
				</g>
				<g>
					<g>
						<path d="M230.8,121.7c1.1-1.2,1-3.1-0.2-4.2c-1.2-1.1-3.1-1-4.2,0.2c-1.1,1.2-1,3.1,0.2,4.2
							C227.8,123,229.7,122.9,230.8,121.7z"/>
					</g>
				</g>
				<g>
					<g>
						<path d="M220.8,113.2c1.1-1.2,1-3.1-0.2-4.2s-3.1-1-4.2,0.2c-1.1,1.2-1,3.1,0.2,4.2
							C217.7,114.5,219.6,114.4,220.8,113.2z"/>
					</g>
				</g>
				<g>
					<g>
						<path d="M210.7,105c1.1-1.2,1-3.1-0.2-4.2c-1.2-1.1-3.1-1-4.2,0.2c-1.1,1.2-1,3.1,0.2,4.2
							C207.7,106.3,209.6,106.2,210.7,105z"/>
					</g>
				</g>
				<g>
					<g>
						<path d="M249.9,97.5c1.1-1.2,1-3.1-0.2-4.2c-1.2-1.1-3.1-1-4.2,0.2c-1.1,1.2-1,3.1,0.2,4.2
							C246.9,98.8,248.8,98.7,249.9,97.5z"/>
					</g>
				</g>
				<g>
					<g>
						<path d="M247.6,142.8c1.1-1.2,1-3.1-0.2-4.2c-1.2-1.1-3.1-1-4.2,0.2c-1.1,1.2-1,3.1,0.2,4.2
							C244.6,144.2,246.5,144.1,247.6,142.8z"/>
					</g>
				</g>
				<g>
					<g>
						<path d="M241.3,154.2c1.1-1.2,1-3.1-0.2-4.2c-1.2-1.1-3.1-1-4.2,0.2c-1.1,1.2-1,3.1,0.2,4.2
							C238.3,155.5,240.2,155.4,241.3,154.2z"/>
					</g>
				</g>
				<g>
					<g>
						<path d="M241.1,107.1c1.1-1.2,1-3.1-0.2-4.2c-1.2-1.1-3.1-1-4.2,0.2c-1.1,1.2-1,3.1,0.2,4.2
							C238.1,108.4,240,108.3,241.1,107.1z"/>
					</g>
				</g>
				<g>
					<g>
						<path d="M199,112.8c1.1-1.2,1-3.1-0.2-4.2c-1.2-1.1-3.1-1-4.2,0.2c-1.1,1.2-1,3.1,0.2,4.2
							C196,114.1,197.9,114,199,112.8z"/>
					</g>
				</g>
				<g>
					<g>
						<path d="M220.1,129c1.1-1.2,1-3.1-0.2-4.2c-1.2-1.1-3.1-1-4.2,0.2c-1.1,1.2-1,3.1,0.2,4.2S219,130.2,220.1,129
							z"/>
					</g>
				</g>
				<g>
					<g>
						<path d="M189.3,105.3c1.1-1.2,1-3.1-0.2-4.2c-1.2-1.1-3.1-1-4.2,0.2c-1.1,1.2-1,3.1,0.2,4.2
							C186.3,106.7,188.2,106.6,189.3,105.3z"/>
					</g>
				</g>
				<g>
					<g>
						<path d="M178.5,121.2c1.1-1.2,1-3.1-0.2-4.2c-1.2-1.1-3.1-1-4.2,0.2c-1.1,1.2-1,3.1,0.2,4.2
							C175.5,122.5,177.3,122.4,178.5,121.2z"/>
					</g>
				</g>
				<g>
					<g>
						<path d="M176.1,108c1.1-1.2,1-3.1-0.2-4.2c-1.2-1.1-3.1-1-4.2,0.2c-1.1,1.2-1,3.1,0.2,4.2
							C173.1,109.3,175,109.2,176.1,108z"/>
					</g>
				</g>
				<g>
					<g>
						<path d="M147.3,107.3c1.1-1.2,1-3.1-0.2-4.2c-1.2-1.1-3.1-1-4.2,0.2c-1.1,1.2-1,3.1,0.2,4.2
							S146.2,108.5,147.3,107.3z"/>
					</g>
				</g>
				<g>
					<g>
						<path d="M165.7,120.8c1.1-1.2,1-3.1-0.2-4.2c-1.2-1.1-3.1-1-4.2,0.2c-1.1,1.2-1,3.1,0.2,4.2
							C162.7,122.1,164.6,122,165.7,120.8z"/>
					</g>
				</g>
				<g>
					<g>
						<path d="M262.5,140.9c1.1-1.2,1-3.1-0.2-4.2c-1.2-1.1-3.1-1-4.2,0.2c-1.1,1.2-1,3.1,0.2,4.2
							C259.5,142.2,261.4,142.1,262.5,140.9z"/>
					</g>
				</g>
				<g>
					<g>
						<path d="M157.3,112.2c1.1-1.2,1-3.1-0.2-4.2c-1.2-1.1-3.1-1-4.2,0.2c-1.1,1.2-1,3.1,0.2,4.2
							C154.3,113.5,156.2,113.4,157.3,112.2z"/>
					</g>
				</g>
				<g>
					<g>
						<path d="M228.6,140.2c1.1-1.2,1-3.1-0.2-4.2c-1.2-1.1-3.1-1-4.2,0.2c-1.1,1.2-1,3.1,0.2,4.2
							C225.6,141.6,227.5,141.5,228.6,140.2z"/>
					</g>
				</g>
				<g>
					<g>
						<path d="M195.9,133.9c1.1-1.2,1-3.1-0.2-4.2c-1.2-1.1-3.1-1-4.2,0.2c-1.1,1.2-1,3.1,0.2,4.2
							C192.9,135.2,194.8,135.1,195.9,133.9z"/>
					</g>
				</g>
				<g>
					<g>
						<path d="M190.6,121.5c1.1-1.2,1-3.1-0.2-4.2c-1.2-1.1-3.1-1-4.2,0.2c-1.1,1.2-1,3.1,0.2,4.2
							C187.6,122.9,189.5,122.8,190.6,121.5z"/>
					</g>
				</g>
				<g>
					<g>
						<path d="M208.8,120c1.1-1.2,1-3.1-0.2-4.2s-3.1-1-4.2,0.2c-1.1,1.2-1,3.1,0.2,4.2
							C205.8,121.3,207.7,121.2,208.8,120z"/>
					</g>
				</g>
			</g>
		</g>
		<rect x="84" y="86.3" fill="none" stroke="#1F140F" stroke-width="1.441" stroke-miterlimit="10" width="202.4" height="246.5"/>
		<g>
			<path fill="#D7D9DD" d="M307.9,216.1L58.3,115c-10.4,14.1-39.1,380.5-39.1,380.5h263c0,0,10.4-37.9,20.8-47.1l4.9-0.6l4.9,0.6
				c10.4,9.2,20.8,47.1,20.8,47.1h263c0,0-28.7-366.4-39.1-380.5L356.4,289.7V231L307.9,216.1z"/>
			<path fill="none" stroke="#1F140F" stroke-width="1.441" stroke-miterlimit="10" d="M307.9,216.1L58.3,115
				c-10.4,14.1-39.1,380.5-39.1,380.5h263c0,0,10.4-37.9,20.8-47.1l4.9-0.6l4.9,0.6c10.4,9.2,20.8,47.1,20.8,47.1h263
				c0,0-28.7-366.4-39.1-380.5L356.4,289.7V231L307.9,216.1z"/>
		</g>
		<rect x="319.4" y="82.5" fill="#FFFFFF" width="10.1" height="144.1"/>
		
			<rect x="319.4" y="82.5" fill="none" stroke="#1F140F" stroke-width="1.441" stroke-miterlimit="10" width="10.1" height="144.1"/>
		<g>
			<path fill="#D7D9DD" d="M408.6,240.8c-5,3.7-84.5,63.5-97.7,76.1c-13.1,12.5-10,30.1-9.8,27.8c1.2-14.7,3.1-72.5,207.4-23.2
				c0,0,3.3-0.3,6.5-12.5c3.3-12.2,50.2-141.9,54.6-155"/>
			<path fill="none" stroke="#1F140F" stroke-width="1.441" stroke-miterlimit="10" d="M408.6,240.8c-5,3.7-84.5,63.5-97.7,76.1
				c-13.1,12.5-10,30.1-9.8,27.8c1.2-14.7,3.1-72.5,207.4-23.2c0,0,3.3-0.3,6.5-12.5c3.3-12.2,50.2-141.9,54.6-155"/>
			<path class="pretina color4" fill="#c4c4c4" d="M58.3,61.4c189.6-70.1,454.5-25,501-12.2c18.7,5.1,21.4,31,21.4,31l-25.5,34.3l-1.2,2
				c-43.2-11.8-270.2-50.5-454.3,0.4"/>
			<path fill="none" stroke="#1F140F" stroke-width="1.441" stroke-miterlimit="10" d="M58.3,61.4c189.6-70.1,454.5-25,501-12.2
				c18.7,5.1,21.4,31,21.4,31l-25.5,34.3l-1.2,2c-43.2-11.8-270.2-50.5-454.3,0.4"/>
		</g>
		<polyline fill="#727276" points="579,72.6 580.6,80.1 575.7,82.5 		"/>
		<polyline fill="none" stroke="#1F140F" stroke-width="1.441" stroke-miterlimit="10" points="579,72.6 580.6,80.1 575.7,82.5 		
			"/>
		<g>
			<g>
				<defs>
					<path id="SVGID_7_" d="M559.2,80.6c5.6,1.5,9.8,4.9,12.9,9l8.5-11.4c0,0-2.7-25.8-21.4-31c-46.5-12.7-311.3-57.9-501,12.2
						L78.1,86C265.9,25.7,514.3,68.2,559.2,80.6"/>
				</defs>
				<use class="pretina color1" xlink:href="#SVGID_7_"  overflow="visible" fill="#c4c4c4"/>
				<clipPath id="SVGID_8_">
					<use xlink:href="#SVGID_7_"  overflow="visible"/>
				</clipPath>
				<g class="pretina color2" clip-path="url(#SVGID_8_)">
					<g>
						<g>
							<path d="M574.8,75.8c1.1-1.2,1-3.1-0.2-4.2c-1.2-1.1-3.1-1-4.2,0.2s-1,3.1,0.2,4.2
								C571.8,77.1,573.7,77,574.8,75.8z"/>
						</g>
					</g>
					<g>
						<g>
							<path d="M578.5,62.7c1.1-1.2,1-3.1-0.2-4.2c-1.2-1.1-3.1-1-4.2,0.2c-1.1,1.2-1,3.1,0.2,4.2
								C575.5,64,577.4,63.9,578.5,62.7z"/>
						</g>
					</g>
					<g>
						<g>
							<path d="M561.9,59.4c1.1-1.2,1-3.1-0.2-4.2s-3.1-1-4.2,0.2c-1.1,1.2-1,3.1,0.2,4.2
								C558.9,60.8,560.8,60.7,561.9,59.4z"/>
						</g>
					</g>
					<g>
						<g>
							<path d="M557.3,76.9c1.1-1.2,1-3.1-0.2-4.2c-1.2-1.1-3.1-1-4.2,0.2c-1.1,1.2-1,3.1,0.2,4.2
								C554.3,78.2,556.2,78.1,557.3,76.9z"/>
						</g>
					</g>
					<g>
						<g>
							<path d="M551.3,65.1c1.1-1.2,1-3.1-0.2-4.2c-1.2-1.1-3.1-1-4.2,0.2c-1.1,1.2-1,3.1,0.2,4.2
								C548.3,66.4,550.2,66.3,551.3,65.1z"/>
						</g>
					</g>
					<g>
						<g>
							<path d="M542.1,54c1.1-1.2,1-3.1-0.2-4.2c-1.2-1.1-3.1-1-4.2,0.2c-1.1,1.2-1,3.1,0.2,4.2S541,55.3,542.1,54z"
								/>
						</g>
					</g>
					<g>
						<g>
							<path d="M531.2,66.3c1.1-1.2,1-3.1-0.2-4.2c-1.2-1.1-3.1-1-4.2,0.2c-1.1,1.2-1,3.1,0.2,4.2
								C528.2,67.6,530.1,67.5,531.2,66.3z"/>
						</g>
					</g>
					<g>
						<g>
							<path d="M525.9,46.2c1.1-1.2,1-3.1-0.2-4.2c-1.2-1.1-3.1-1-4.2,0.2c-1.1,1.2-1,3.1,0.2,4.2
								S524.8,47.4,525.9,46.2z"/>
						</g>
					</g>
					<g>
						<g>
							<path d="M515.9,58.6c1.1-1.2,1-3.1-0.2-4.2s-3.1-1-4.2,0.2c-1.1,1.2-1,3.1,0.2,4.2
								C512.9,59.9,514.8,59.8,515.9,58.6z"/>
						</g>
					</g>
					<g>
						<g>
							<path d="M503.6,66.4c1.1-1.2,1-3.1-0.2-4.2s-3.1-1-4.2,0.2c-1.1,1.2-1,3.1,0.2,4.2
								C500.6,67.7,502.5,67.6,503.6,66.4z"/>
						</g>
					</g>
					<g>
						<g>
							<path d="M506.5,47.7c1.1-1.2,1-3.1-0.2-4.2c-1.2-1.1-3.1-1-4.2,0.2c-1.1,1.2-1,3.1,0.2,4.2
								C503.5,49.1,505.4,49,506.5,47.7z"/>
						</g>
					</g>
					<g>
						<g>
							<path d="M488.2,55.4c1.1-1.2,1-3.1-0.2-4.2c-1.2-1.1-3.1-1-4.2,0.2c-1.1,1.2-1,3.1,0.2,4.2
								C485.2,56.8,487.1,56.7,488.2,55.4z"/>
						</g>
					</g>
					<g>
						<g>
							<path d="M479.9,44.1c1.1-1.2,1-3.1-0.2-4.2c-1.2-1.1-3.1-1-4.2,0.2c-1.1,1.2-1,3.1,0.2,4.2
								C476.9,45.5,478.8,45.4,479.9,44.1z"/>
						</g>
					</g>
					<g>
						<g>
							<path d="M470.8,33.4c1.1-1.2,1-3.1-0.2-4.2c-1.2-1.1-3.1-1-4.2,0.2c-1.1,1.2-1,3.1,0.2,4.2
								C467.8,34.8,469.7,34.7,470.8,33.4z"/>
						</g>
					</g>
					<g>
						<g>
							<path d="M462,54.5c1.1-1.2,1-3.1-0.2-4.2c-1.2-1.1-3.1-1-4.2,0.2c-1.1,1.2-1,3.1,0.2,4.2
								C459,55.8,460.9,55.7,462,54.5z"/>
						</g>
					</g>
					<g>
						<g>
							<path d="M450.7,46.1c1.1-1.2,1-3.1-0.2-4.2s-3.1-1-4.2,0.2c-1.1,1.2-1,3.1,0.2,4.2
								C447.7,47.4,449.6,47.3,450.7,46.1z"/>
						</g>
					</g>
					<g>
						<g>
							<path d="M440.8,33c1.1-1.2,1-3.1-0.2-4.2c-1.2-1.1-3.1-1-4.2,0.2c-1.1,1.2-1,3.1,0.2,4.2
								C437.8,34.3,439.7,34.2,440.8,33z"/>
						</g>
					</g>
					<g>
						<g>
							<path d="M432.3,47.9c1.1-1.2,1-3.1-0.2-4.2c-1.2-1.1-3.1-1-4.2,0.2c-1.1,1.2-1,3.1,0.2,4.2
								C429.3,49.2,431.2,49.1,432.3,47.9z"/>
						</g>
					</g>
					<g>
						<g>
							<path d="M424.9,31.4c1.1-1.2,1-3.1-0.2-4.2c-1.2-1.1-3.1-1-4.2,0.2c-1.1,1.2-1,3.1,0.2,4.2
								C421.9,32.7,423.8,32.6,424.9,31.4z"/>
						</g>
					</g>
					<g>
						<g>
							<path d="M412.4,46.3c1.1-1.2,1-3.1-0.2-4.2c-1.2-1.1-3.1-1-4.2,0.2c-1.1,1.2-1,3.1,0.2,4.2
								C409.4,47.7,411.3,47.6,412.4,46.3z"/>
						</g>
					</g>
					<g>
						<g>
							<path d="M404.9,31.1c1.1-1.2,1-3.1-0.2-4.2c-1.2-1.1-3.1-1-4.2,0.2c-1.1,1.2-1,3.1,0.2,4.2
								C401.9,32.4,403.8,32.3,404.9,31.1z"/>
						</g>
					</g>
					<g>
						<g>
							<path d="M398.9,54.8c1.1-1.2,1-3.1-0.2-4.2c-1.2-1.1-3.1-1-4.2,0.2c-1.1,1.2-1,3.1,0.2,4.2
								C395.9,56.1,397.8,56,398.9,54.8z"/>
						</g>
					</g>
					<g>
						<g>
							<path d="M389.9,43c1.1-1.2,1-3.1-0.2-4.2c-1.2-1.1-3.1-1-4.2,0.2c-1.1,1.2-1,3.1,0.2,4.2
								C386.9,44.3,388.8,44.2,389.9,43z"/>
						</g>
					</g>
					<g>
						<g>
							<path d="M380.3,52.6c1.1-1.2,1-3.1-0.2-4.2c-1.2-1.1-3.1-1-4.2,0.2c-1.1,1.2-1,3.1,0.2,4.2
								C377.3,54,379.2,53.9,380.3,52.6z"/>
						</g>
					</g>
					<g>
						<g>
							<path d="M376.4,33.1c1.1-1.2,1-3.1-0.2-4.2c-1.2-1.1-3.1-1-4.2,0.2c-1.1,1.2-1,3.1,0.2,4.2
								C373.4,34.5,375.3,34.4,376.4,33.1z"/>
						</g>
					</g>
					<g>
						<g>
							<path d="M365,41.6c1.1-1.2,1-3.1-0.2-4.2s-3.1-1-4.2,0.2c-1.1,1.2-1,3.1,0.2,4.2
								C362,42.9,363.9,42.8,365,41.6z"/>
						</g>
					</g>
					<g>
						<g>
							<path d="M358.5,24.2c1.1-1.2,1-3.1-0.2-4.2s-3.1-1-4.2,0.2c-1.1,1.2-1,3.1,0.2,4.2
								C355.5,25.5,357.3,25.4,358.5,24.2z"/>
						</g>
					</g>
					<g>
						<g>
							<path d="M349.9,44.4c1.1-1.2,1-3.1-0.2-4.2c-1.2-1.1-3.1-1-4.2,0.2c-1.1,1.2-1,3.1,0.2,4.2
								C346.9,45.7,348.8,45.6,349.9,44.4z"/>
						</g>
					</g>
					<g>
						<g>
							<path d="M345.5,31c1.1-1.2,1-3.1-0.2-4.2c-1.2-1.1-3.1-1-4.2,0.2c-1.1,1.2-1,3.1,0.2,4.2
								C342.5,32.3,344.4,32.2,345.5,31z"/>
						</g>
					</g>
					<g>
						<g>
							<path d="M329.4,46.6c1.1-1.2,1-3.1-0.2-4.2c-1.2-1.1-3.1-1-4.2,0.2c-1.1,1.2-1,3.1,0.2,4.2
								C326.4,48,328.3,47.9,329.4,46.6z"/>
						</g>
					</g>
					<g>
						<g>
							<path d="M328.3,31.5c1.1-1.2,1-3.1-0.2-4.2s-3.1-1-4.2,0.2c-1.1,1.2-1,3.1,0.2,4.2
								C325.2,32.8,327.1,32.7,328.3,31.5z"/>
						</g>
					</g>
					<g>
						<g>
							<path d="M310.6,34.4c1.1-1.2,1-3.1-0.2-4.2s-3.1-1-4.2,0.2c-1.1,1.2-1,3.1,0.2,4.2
								C307.6,35.7,309.5,35.6,310.6,34.4z"/>
						</g>
					</g>
					<g>
						<g>
							<path d="M300.5,47.2c1.1-1.2,1-3.1-0.2-4.2c-1.2-1.1-3.1-1-4.2,0.2c-1.1,1.2-1,3.1,0.2,4.2
								C297.5,48.6,299.4,48.5,300.5,47.2z"/>
						</g>
					</g>
					<g>
						<g>
							<path d="M294.4,26.7c1.1-1.2,1-3.1-0.2-4.2c-1.2-1.1-3.1-1-4.2,0.2c-1.1,1.2-1,3.1,0.2,4.2
								C291.4,28,293.3,27.9,294.4,26.7z"/>
						</g>
					</g>
					<g>
						<g>
							<path d="M285,39.7c1.1-1.2,1-3.1-0.2-4.2c-1.2-1.1-3.1-1-4.2,0.2c-1.1,1.2-1,3.1,0.2,4.2
								C282,41,283.9,40.9,285,39.7z"/>
						</g>
					</g>
					<g>
						<g>
							<path d="M271,32.9c1.1-1.2,1-3.1-0.2-4.2c-1.2-1.1-3.1-1-4.2,0.2c-1.1,1.2-1,3.1,0.2,4.2
								C268,34.3,269.9,34.2,271,32.9z"/>
						</g>
					</g>
					<g>
						<g>
							<path d="M268.7,50.1c1.1-1.2,1-3.1-0.2-4.2s-3.1-1-4.2,0.2c-1.1,1.2-1,3.1,0.2,4.2
								C265.7,51.5,267.6,51.4,268.7,50.1z"/>
						</g>
					</g>
					<g>
						<g>
							<path d="M253.1,39.5c1.1-1.2,1-3.1-0.2-4.2c-1.2-1.1-3.1-1-4.2,0.2c-1.1,1.2-1,3.1,0.2,4.2
								C250,40.8,251.9,40.7,253.1,39.5z"/>
						</g>
					</g>
					<g>
						<g>
							<path d="M242.9,27.5c1.1-1.2,1-3.1-0.2-4.2c-1.2-1.1-3.1-1-4.2,0.2c-1.1,1.2-1,3.1,0.2,4.2
								C239.9,28.8,241.8,28.7,242.9,27.5z"/>
						</g>
					</g>
					<g>
						<g>
							<path d="M232,52.5c1.1-1.2,1-3.1-0.2-4.2c-1.2-1.1-3.1-1-4.2,0.2c-1.1,1.2-1,3.1,0.2,4.2
								C229,53.8,230.9,53.7,232,52.5z"/>
						</g>
					</g>
					<g>
						<g>
							<path d="M229.6,36.3c1.1-1.2,1-3.1-0.2-4.2c-1.2-1.1-3.1-1-4.2,0.2c-1.1,1.2-1,3.1,0.2,4.2
								C226.6,37.7,228.5,37.6,229.6,36.3z"/>
						</g>
					</g>
					<g>
						<g>
							<path d="M214.8,48.6c1.1-1.2,1-3.1-0.2-4.2c-1.2-1.1-3.1-1-4.2,0.2c-1.1,1.2-1,3.1,0.2,4.2
								C211.8,50,213.7,49.9,214.8,48.6z"/>
						</g>
					</g>
					<g>
						<g>
							<path d="M211,28.4c1.1-1.2,1-3.1-0.2-4.2c-1.2-1.1-3.1-1-4.2,0.2c-1.1,1.2-1,3.1,0.2,4.2
								C208,29.8,209.9,29.7,211,28.4z"/>
						</g>
					</g>
					<g>
						<g>
							<path d="M201,39.5c1.1-1.2,1-3.1-0.2-4.2c-1.2-1.1-3.1-1-4.2,0.2c-1.1,1.2-1,3.1,0.2,4.2
								C198,40.9,199.9,40.8,201,39.5z"/>
						</g>
					</g>
					<g>
						<g>
							<path d="M190.3,55.3c1.1-1.2,1-3.1-0.2-4.2c-1.2-1.1-3.1-1-4.2,0.2c-1.1,1.2-1,3.1,0.2,4.2
								S189.2,56.5,190.3,55.3z"/>
						</g>
					</g>
					<g>
						<g>
							<path d="M183.9,37.4c1.1-1.2,1-3.1-0.2-4.2c-1.2-1.1-3.1-1-4.2,0.2c-1.1,1.2-1,3.1,0.2,4.2
								C180.9,38.7,182.8,38.6,183.9,37.4z"/>
						</g>
					</g>
					<g>
						<g>
							<path d="M176.8,49.4c1.1-1.2,1-3.1-0.2-4.2c-1.2-1.1-3.1-1-4.2,0.2c-1.1,1.2-1,3.1,0.2,4.2
								C173.8,50.8,175.7,50.7,176.8,49.4z"/>
						</g>
					</g>
					<g>
						<g>
							<path d="M168.4,34.7c1.1-1.2,1-3.1-0.2-4.2c-1.2-1.1-3.1-1-4.2,0.2c-1.1,1.2-1,3.1,0.2,4.2
								C165.4,36,167.3,35.9,168.4,34.7z"/>
						</g>
					</g>
					<g>
						<g>
							<path d="M165,58.5c1.1-1.2,1-3.1-0.2-4.2c-1.2-1.1-3.1-1-4.2,0.2c-1.1,1.2-1,3.1,0.2,4.2
								C162,59.8,163.9,59.7,165,58.5z"/>
						</g>
					</g>
					<g>
						<g>
							<path d="M153.8,35c1.1-1.2,1-3.1-0.2-4.2c-1.2-1.1-3.1-1-4.2,0.2c-1.1,1.2-1,3.1,0.2,4.2
								C150.8,36.3,152.7,36.2,153.8,35z"/>
						</g>
					</g>
					<g>
						<g>
							<path d="M147.6,49.6c1.1-1.2,1-3.1-0.2-4.2c-1.2-1.1-3.1-1-4.2,0.2c-1.1,1.2-1,3.1,0.2,4.2
								C144.6,50.9,146.5,50.8,147.6,49.6z"/>
						</g>
					</g>
					<g>
						<g>
							<path d="M151.3,65.4c1.1-1.2,1-3.1-0.2-4.2c-1.2-1.1-3.1-1-4.2,0.2c-1.1,1.2-1,3.1,0.2,4.2
								C148.3,66.7,150.2,66.6,151.3,65.4z"/>
						</g>
					</g>
					<g>
						<g>
							<path d="M137.3,61.9c1.1-1.2,1-3.1-0.2-4.2c-1.2-1.1-3.1-1-4.2,0.2c-1.1,1.2-1,3.1,0.2,4.2
								C134.3,63.2,136.2,63.1,137.3,61.9z"/>
						</g>
					</g>
					<g>
						<g>
							<path d="M131.3,49c1.1-1.2,1-3.1-0.2-4.2c-1.2-1.1-3.1-1-4.2,0.2c-1.1,1.2-1,3.1,0.2,4.2
								C128.3,50.4,130.2,50.3,131.3,49z"/>
						</g>
					</g>
					<g>
						<g>
							<path d="M122.7,70.8c1.1-1.2,1-3.1-0.2-4.2c-1.2-1.1-3.1-1-4.2,0.2c-1.1,1.2-1,3.1,0.2,4.2
								C119.7,72.1,121.6,72,122.7,70.8z"/>
						</g>
					</g>
					<g>
						<g>
							<path d="M117,58.1c1.1-1.2,1-3.1-0.2-4.2c-1.2-1.1-3.1-1-4.2,0.2c-1.1,1.2-1,3.1,0.2,4.2S115.9,59.3,117,58.1
								z"/>
						</g>
					</g>
					<g>
						<g>
							<path d="M105.3,53.6c1.1-1.2,1-3.1-0.2-4.2s-3.1-1-4.2,0.2c-1.1,1.2-1,3.1,0.2,4.2S104.2,54.9,105.3,53.6z"/>
						</g>
					</g>
					<g>
						<g>
							<path d="M98.6,67.8c1.1-1.2,1-3.1-0.2-4.2c-1.2-1.1-3.1-1-4.2,0.2c-1.1,1.2-1,3.1,0.2,4.2
								C95.6,69.1,97.5,69,98.6,67.8z"/>
						</g>
					</g>
					<g>
						<g>
							<path d="M89.2,56.4c1.1-1.2,1-3.1-0.2-4.2c-1.2-1.1-3.1-1-4.2,0.2c-1.1,1.2-1,3.1,0.2,4.2
								C86.2,57.7,88.1,57.6,89.2,56.4z"/>
						</g>
					</g>
					<g>
						<g>
							<path d="M89.7,78c1.1-1.2,1-3.1-0.2-4.2c-1.2-1.1-3.1-1-4.2,0.2c-1.1,1.2-1,3.1,0.2,4.2S88.6,79.3,89.7,78z"
								/>
						</g>
					</g>
					<g>
						<g>
							<path d="M65.4,59.3c1.1-1.2,1-3.1-0.2-4.2c-1.2-1.1-3.1-1-4.2,0.2c-1.1,1.2-1,3.1,0.2,4.2
								C62.4,60.6,64.3,60.5,65.4,59.3z"/>
						</g>
					</g>
					<g>
						<g>
							<path d="M72.8,65.9c1.1-1.2,1-3.1-0.2-4.2s-3.1-1-4.2,0.2c-1.1,1.2-1,3.1,0.2,4.2
								C69.8,67.3,71.7,67.2,72.8,65.9z"/>
						</g>
					</g>
				</g>
			</g>
			<path fill="none" stroke="#1F140F" stroke-width="1.441" stroke-miterlimit="10" d="M559.2,80.6c5.6,1.5,9.8,4.9,12.9,9l8.5-11.4
				c0,0-2.7-25.8-21.4-31c-46.5-12.7-311.3-57.9-501,12.2L78.1,86C265.9,25.7,514.3,68.2,559.2,80.6z"/>
			<path class="pretina color3" fill="#c4c4c4" d="M568.3,90c-3.1-4-6.9-6.7-11.2-7.9c-41-11.2-289.4-55.6-479.4,5.4l-1.9-5.8
				c191.4-61.4,441.5-16.8,482.9-5.4c5.7,1.6,10.5,4.9,14.5,10L568.3,90z"/>
			<path fill="none" stroke="#1F140F" stroke-width="1.441" stroke-miterlimit="10" d="M568.3,90c-3.1-4-6.9-6.7-11.2-7.9
				c-41-11.2-289.4-55.6-479.4,5.4l-1.9-5.8c191.4-61.4,441.5-16.8,482.9-5.4c5.7,1.6,10.5,4.9,14.5,10L568.3,90z"/>
			<g>
				<defs>
					<path id="SVGID_9_" d="M378.8,261l19.2-12.9c0,0,31.2,21.2,52.6,30.8c21.4,9.5,81-109.1,81-109.1l21.6-55.1l-162,119.9
						c0,0-3.1,0.9-5.5,7.3C383.4,248.4,378.8,261,378.8,261"/>
				</defs>
				<use class="forroint color1" xlink:href="#SVGID_9_"  overflow="visible" fill="#c4c4c4"/>
				<clipPath id="SVGID_10_">
					<use xlink:href="#SVGID_9_"  overflow="visible"/>
				</clipPath>
				<g class="forroint color2" clip-path="url(#SVGID_10_)">
					<g>
						<g>
							<path d="M556.1,116.5c1.1-1.2,1-3.1-0.2-4.2c-1.2-1.1-3.1-1-4.2,0.2c-1.1,1.2-1,3.1,0.2,4.2
								C553.1,117.9,555,117.8,556.1,116.5z"/>
						</g>
					</g>
					<g>
						<g>
							<path d="M550,127.3c1.1-1.2,1-3.1-0.2-4.2c-1.2-1.1-3.1-1-4.2,0.2s-1,3.1,0.2,4.2
								C547,128.7,548.9,128.6,550,127.3z"/>
						</g>
					</g>
					<g>
						<g>
							<path d="M383.8,262.1c1.1-1.2,1-3.1-0.2-4.2c-1.2-1.1-3.1-1-4.2,0.2c-1.1,1.2-1,3.1,0.2,4.2
								C380.8,263.5,382.7,263.4,383.8,262.1z"/>
						</g>
					</g>
					<g>
						<g>
							<path d="M387.3,248.3c1.1-1.2,1-3.1-0.2-4.2c-1.2-1.1-3.1-1-4.2,0.2c-1.1,1.2-1,3.1,0.2,4.2
								C384.3,249.6,386.2,249.5,387.3,248.3z"/>
						</g>
					</g>
					<g>
						<g>
							<path d="M518.4,152.8c1.1-1.2,1-3.1-0.2-4.2s-3.1-1-4.2,0.2c-1.1,1.2-1,3.1,0.2,4.2
								C515.4,154.1,517.3,154,518.4,152.8z"/>
						</g>
					</g>
					<g>
						<g>
							<path d="M530.6,157.8c1.1-1.2,1-3.1-0.2-4.2c-1.2-1.1-3.1-1-4.2,0.2c-1.1,1.2-1,3.1,0.2,4.2
								C527.6,159.1,529.5,159,530.6,157.8z"/>
						</g>
					</g>
					<g>
						<g>
							<path d="M537.2,133.6c1.1-1.2,1-3.1-0.2-4.2c-1.2-1.1-3.1-1-4.2,0.2c-1.1,1.2-1,3.1,0.2,4.2
								C534.2,134.9,536,134.8,537.2,133.6z"/>
						</g>
					</g>
					<g>
						<g>
							<path d="M517.9,166.6c1.1-1.2,1-3.1-0.2-4.2s-3.1-1-4.2,0.2c-1.1,1.2-1,3.1,0.2,4.2
								C514.9,167.9,516.8,167.8,517.9,166.6z"/>
						</g>
					</g>
					<g>
						<g>
							<path d="M506.1,158.3c1.1-1.2,1-3.1-0.2-4.2c-1.2-1.1-3.1-1-4.2,0.2c-1.1,1.2-1,3.1,0.2,4.2
								C503.1,159.6,505,159.5,506.1,158.3z"/>
						</g>
					</g>
					<g>
						<g>
							<path d="M443,270.7c1.1-1.2,1-3.1-0.2-4.2s-3.1-1-4.2,0.2c-1.1,1.2-1,3.1,0.2,4.2
								C439.9,272,441.8,271.9,443,270.7z"/>
						</g>
					</g>
					<g>
						<g>
							<path d="M397.4,243.6c1.1-1.2,1-3.1-0.2-4.2c-1.2-1.1-3.1-1-4.2,0.2c-1.1,1.2-1,3.1,0.2,4.2
								S396.3,244.8,397.4,243.6z"/>
						</g>
					</g>
					<g>
						<g>
							<path d="M516.3,180.3c1.1-1.2,1-3.1-0.2-4.2c-1.2-1.1-3.1-1-4.2,0.2c-1.1,1.2-1,3.1,0.2,4.2
								C513.3,181.6,515.2,181.5,516.3,180.3z"/>
						</g>
					</g>
					<g>
						<g>
							<path d="M401.5,229.9c1.1-1.2,1-3.1-0.2-4.2c-1.2-1.1-3.1-1-4.2,0.2c-1.1,1.2-1,3.1,0.2,4.2
								C398.5,231.2,400.4,231.1,401.5,229.9z"/>
						</g>
					</g>
					<g>
						<g>
							<path d="M501.8,197.5c1.1-1.2,1-3.1-0.2-4.2c-1.2-1.1-3.1-1-4.2,0.2c-1.1,1.2-1,3.1,0.2,4.2
								C498.8,198.8,500.7,198.7,501.8,197.5z"/>
						</g>
					</g>
					<g>
						<g>
							<path d="M494.9,162.7c1.1-1.2,1-3.1-0.2-4.2s-3.1-1-4.2,0.2c-1.1,1.2-1,3.1,0.2,4.2
								C491.9,164,493.8,163.9,494.9,162.7z"/>
						</g>
					</g>
					<g>
						<g>
							<path d="M504.6,171.2c1.1-1.2,1-3.1-0.2-4.2s-3.1-1-4.2,0.2c-1.1,1.2-1,3.1,0.2,4.2
								C501.6,172.5,503.5,172.4,504.6,171.2z"/>
						</g>
					</g>
					<g>
						<g>
							<path d="M425.6,239.1c1.1-1.2,1-3.1-0.2-4.2c-1.2-1.1-3.1-1-4.2,0.2c-1.1,1.2-1,3.1,0.2,4.2
								C422.6,240.4,424.5,240.3,425.6,239.1z"/>
						</g>
					</g>
					<g>
						<g>
							<path d="M503.3,184.6c1.1-1.2,1-3.1-0.2-4.2s-3.1-1-4.2,0.2c-1.1,1.2-1,3.1,0.2,4.2
								C500.3,186,502.2,185.9,503.3,184.6z"/>
						</g>
					</g>
					<g>
						<g>
							<path d="M409.9,247c1.1-1.2,1-3.1-0.2-4.2c-1.2-1.1-3.1-1-4.2,0.2c-1.1,1.2-1,3.1,0.2,4.2
								S408.8,248.2,409.9,247z"/>
						</g>
					</g>
					<g>
						<g>
							<path d="M492.9,174.1c1.1-1.2,1-3.1-0.2-4.2s-3.1-1-4.2,0.2c-1.1,1.2-1,3.1,0.2,4.2
								C489.9,175.4,491.8,175.3,492.9,174.1z"/>
						</g>
					</g>
					<g>
						<g>
							<path d="M481.4,227.2c1.1-1.2,1-3.1-0.2-4.2s-3.1-1-4.2,0.2c-1.1,1.2-1,3.1,0.2,4.2
								C478.4,228.5,480.3,228.4,481.4,227.2z"/>
						</g>
					</g>
					<g>
						<g>
							<path d="M422.6,252.2c1.1-1.2,1-3.1-0.2-4.2s-3.1-1-4.2,0.2c-1.1,1.2-1,3.1,0.2,4.2
								C419.6,253.5,421.5,253.4,422.6,252.2z"/>
						</g>
					</g>
					<g>
						<g>
							<path d="M413.1,234.6c1.1-1.2,1-3.1-0.2-4.2c-1.2-1.1-3.1-1-4.2,0.2c-1.1,1.2-1,3.1,0.2,4.2
								C410.1,235.9,412,235.8,413.1,234.6z"/>
						</g>
					</g>
					<g>
						<g>
							<path d="M430.6,262.9c1.1-1.2,1-3.1-0.2-4.2s-3.1-1-4.2,0.2c-1.1,1.2-1,3.1,0.2,4.2
								C427.6,264.2,429.5,264.1,430.6,262.9z"/>
						</g>
					</g>
					<g>
						<g>
							<path d="M494.3,211.5c1.1-1.2,1-3.1-0.2-4.2s-3.1-1-4.2,0.2c-1.1,1.2-1,3.1,0.2,4.2
								C491.3,212.8,493.2,212.7,494.3,211.5z"/>
						</g>
					</g>
					<g>
						<g>
							<path d="M480.4,172.5c1.1-1.2,1-3.1-0.2-4.2c-1.2-1.1-3.1-1-4.2,0.2c-1.1,1.2-1,3.1,0.2,4.2
								C477.4,173.8,479.3,173.7,480.4,172.5z"/>
						</g>
					</g>
					<g>
						<g>
							<path d="M480.2,186.2c1.1-1.2,1-3.1-0.2-4.2c-1.2-1.1-3.1-1-4.2,0.2c-1.1,1.2-1,3.1,0.2,4.2
								C477.2,187.5,479.1,187.4,480.2,186.2z"/>
						</g>
					</g>
					<g>
						<g>
							<path d="M485.8,203c1.1-1.2,1-3.1-0.2-4.2s-3.1-1-4.2,0.2c-1.1,1.2-1,3.1,0.2,4.2
								C482.8,204.3,484.7,204.2,485.8,203z"/>
						</g>
					</g>
					<g>
						<g>
							<path d="M474,240.3c1.1-1.2,1-3.1-0.2-4.2s-3.1-1-4.2,0.2c-1.1,1.2-1,3.1,0.2,4.2
								C471,241.7,472.9,241.6,474,240.3z"/>
						</g>
					</g>
					<g>
						<g>
							<path d="M464.7,252.6c1.1-1.2,1-3.1-0.2-4.2c-1.2-1.1-3.1-1-4.2,0.2c-1.1,1.2-1,3.1,0.2,4.2
								C461.7,254,463.6,253.9,464.7,252.6z"/>
						</g>
					</g>
					<g>
						<g>
							<path d="M447.1,197.2c1.1-1.2,1-3.1-0.2-4.2c-1.2-1.1-3.1-1-4.2,0.2c-1.1,1.2-1,3.1,0.2,4.2
								S446,198.4,447.1,197.2z"/>
						</g>
					</g>
					<g>
						<g>
							<path d="M451.4,262.2c1.1-1.2,1-3.1-0.2-4.2c-1.2-1.1-3.1-1-4.2,0.2c-1.1,1.2-1,3.1,0.2,4.2
								C448.4,263.6,450.3,263.5,451.4,262.2z"/>
						</g>
					</g>
					<g>
						<g>
							<path d="M491.9,189.7c1.1-1.2,1-3.1-0.2-4.2c-1.2-1.1-3.1-1-4.2,0.2c-1.1,1.2-1,3.1,0.2,4.2
								S490.8,190.9,491.9,189.7z"/>
						</g>
					</g>
					<g>
						<g>
							<path d="M529.9,146c1.1-1.2,1-3.1-0.2-4.2c-1.2-1.1-3.1-1-4.2,0.2c-1.1,1.2-1,3.1,0.2,4.2
								C526.9,147.4,528.8,147.3,529.9,146z"/>
						</g>
					</g>
					<g>
						<g>
							<path d="M418.4,223.6c1.1-1.2,1-3.1-0.2-4.2c-1.2-1.1-3.1-1-4.2,0.2c-1.1,1.2-1,3.1,0.2,4.2
								C415.3,224.9,417.2,224.8,418.4,223.6z"/>
						</g>
					</g>
					<g>
						<g>
							<path d="M457.8,273.7c1.1-1.2,1-3.1-0.2-4.2c-1.2-1.1-3.1-1-4.2,0.2c-1.1,1.2-1,3.1,0.2,4.2
								S456.7,274.9,457.8,273.7z"/>
						</g>
					</g>
					<g>
						<g>
							<path d="M459.3,196.4c1.1-1.2,1-3.1-0.2-4.2c-1.2-1.1-3.1-1-4.2,0.2c-1.1,1.2-1,3.1,0.2,4.2
								C456.3,197.8,458.2,197.7,459.3,196.4z"/>
						</g>
					</g>
					<g>
						<g>
							<path d="M437.9,253.4c1.1-1.2,1-3.1-0.2-4.2c-1.2-1.1-3.1-1-4.2,0.2c-1.1,1.2-1,3.1,0.2,4.2
								C434.9,254.7,436.8,254.6,437.9,253.4z"/>
						</g>
					</g>
					<g>
						<g>
							<path d="M450.3,249.2c1.1-1.2,1-3.1-0.2-4.2s-3.1-1-4.2,0.2c-1.1,1.2-1,3.1,0.2,4.2
								C447.3,250.5,449.2,250.4,450.3,249.2z"/>
						</g>
					</g>
					<g>
						<g>
							<path d="M433,227c1.1-1.2,1-3.1-0.2-4.2c-1.2-1.1-3.1-1-4.2,0.2c-1.1,1.2-1,3.1,0.2,4.2
								C430,228.3,431.9,228.2,433,227z"/>
						</g>
					</g>
					<g>
						<g>
							<path d="M446,221.3c1.1-1.2,1-3.1-0.2-4.2c-1.2-1.1-3.1-1-4.2,0.2c-1.1,1.2-1,3.1,0.2,4.2
								C443,222.6,444.9,222.5,446,221.3z"/>
						</g>
					</g>
					<g>
						<g>
							<path d="M437.1,240.6c1.1-1.2,1-3.1-0.2-4.2c-1.2-1.1-3.1-1-4.2,0.2c-1.1,1.2-1,3.1,0.2,4.2
								C434.1,241.9,436,241.8,437.1,240.6z"/>
						</g>
					</g>
					<g>
						<g>
							<path d="M451.8,208.9c1.1-1.2,1-3.1-0.2-4.2c-1.2-1.1-3.1-1-4.2,0.2c-1.1,1.2-1,3.1,0.2,4.2
								S450.7,210.1,451.8,208.9z"/>
						</g>
					</g>
					<g>
						<g>
							<path d="M448.4,233.3c1.1-1.2,1-3.1-0.2-4.2c-1.2-1.1-3.1-1-4.2,0.2c-1.1,1.2-1,3.1,0.2,4.2
								S447.3,234.5,448.4,233.3z"/>
						</g>
					</g>
					<g>
						<g>
							<path d="M428.5,213.9c1.1-1.2,1-3.1-0.2-4.2c-1.2-1.1-3.1-1-4.2,0.2c-1.1,1.2-1,3.1,0.2,4.2
								C425.5,215.2,427.4,215.1,428.5,213.9z"/>
						</g>
					</g>
					<g>
						<g>
							<path d="M465.2,208.8c1.1-1.2,1-3.1-0.2-4.2c-1.2-1.1-3.1-1-4.2,0.2c-1.1,1.2-1,3.1,0.2,4.2
								C462.2,210.1,464.1,210,465.2,208.8z"/>
						</g>
					</g>
					<g>
						<g>
							<path d="M474.4,199c1.1-1.2,1-3.1-0.2-4.2c-1.2-1.1-3.1-1-4.2,0.2c-1.1,1.2-1,3.1,0.2,4.2
								C471.4,200.3,473.3,200.2,474.4,199z"/>
						</g>
					</g>
					<g>
						<g>
							<path d="M459.1,220.6c1.1-1.2,1-3.1-0.2-4.2s-3.1-1-4.2,0.2c-1.1,1.2-1,3.1,0.2,4.2
								C456.1,221.9,458,221.8,459.1,220.6z"/>
						</g>
					</g>
					<g>
						<g>
							<path d="M467.3,228.6c1.1-1.2,1-3.1-0.2-4.2s-3.1-1-4.2,0.2c-1.1,1.2-1,3.1,0.2,4.2
								C464.3,230,466.2,229.9,467.3,228.6z"/>
						</g>
					</g>
					<g>
						<g>
							<path d="M439.4,207.6c1.1-1.2,1-3.1-0.2-4.2c-1.2-1.1-3.1-1-4.2,0.2c-1.1,1.2-1,3.1,0.2,4.2
								C436.4,208.9,438.3,208.8,439.4,207.6z"/>
						</g>
					</g>
					<g>
						<g>
							<path d="M459.5,239.7c1.1-1.2,1-3.1-0.2-4.2c-1.2-1.1-3.1-1-4.2,0.2c-1.1,1.2-1,3.1,0.2,4.2
								S458.4,240.9,459.5,239.7z"/>
						</g>
					</g>
					<g>
						<g>
							<path d="M466.2,185.7c1.1-1.2,1-3.1-0.2-4.2s-3.1-1-4.2,0.2c-1.1,1.2-1,3.1,0.2,4.2
								C463.2,187,465.1,186.9,466.2,185.7z"/>
						</g>
					</g>
					<g>
						<g>
							<path d="M476.9,214.3c1.1-1.2,1-3.1-0.2-4.2c-1.2-1.1-3.1-1-4.2,0.2c-1.1,1.2-1,3.1,0.2,4.2
								C473.9,215.6,475.8,215.5,476.9,214.3z"/>
						</g>
					</g>
				</g>
			</g>
			<path fill="none" stroke="#1F140F" stroke-width="1.441" stroke-miterlimit="10" d="M378.8,261l19.2-12.9
				c0,0,31.2,21.2,52.6,30.8c21.4,9.5,81-109.1,81-109.1l21.6-55.1l-162,119.9c0,0-3.1,0.9-5.5,7.3C383.4,248.4,378.8,261,378.8,261
				z"/>
			<path fill="#727276" d="M386.7,255.7c0,0,2.5-13.4,11.3-7.6"/>
			<path fill="none" stroke="#1F140F" stroke-width="1.441" stroke-miterlimit="10" d="M386.7,255.7c0,0,2.5-13.4,11.3-7.6"/>
			<path class="pretina color4" fill="#c4c4c4" d="M577.3,80.1c6.4-6.9-2.9,60.8-7.3,73.8c-4.5,13-51.4,142.7-54.6,155c-3.3,12.2-6.5,12.5-6.5,12.5
				c-26.9-6.5-50.4-11.1-70.7-14.3c0,0,31.8-72.4,65.5-116.9C549.8,129.1,558.1,100.9,577.3,80.1"/>
			<path fill="none" stroke="#1F140F" stroke-width="1.441" stroke-miterlimit="10" d="M577.3,80.1c6.4-6.9-2.9,60.8-7.3,73.8
				c-4.5,13-51.4,142.7-54.6,155c-3.3,12.2-6.5,12.5-6.5,12.5c-26.9-6.5-50.4-11.1-70.7-14.3c0,0,31.8-72.4,65.5-116.9
				C549.8,129.1,558.1,100.9,577.3,80.1z"/>
			<g>
				<defs>
					<path id="SVGID_11_" d="M577.3,80.1c7,6.3-2.9,60.8-7.3,73.8c-4.5,13-51.4,142.7-54.6,155c-3.3,12.2-6.5,12.5-6.5,12.5
						c-13.1-3.2-25.4-5.9-36.9-8.2c0,0,21.6-59,41.2-92C532.7,188.2,575.4,78.4,577.3,80.1"/>
				</defs>
				<use class="pretina color1" xlink:href="#SVGID_11_"  overflow="visible" fill="#c4c4c4"/>
				<clipPath id="SVGID_12_">
					<use xlink:href="#SVGID_11_"  overflow="visible"/>
				</clipPath>
				<g class="pretina color2" clip-path="url(#SVGID_12_)">
					<g>
						<g>
							<path d="M580.3,107.3c1.1-1.2,1-3.1-0.2-4.2c-1.2-1.1-3.1-1-4.2,0.2c-1.1,1.2-1,3.1,0.2,4.2
								C577.3,108.7,579.2,108.6,580.3,107.3z"/>
						</g>
					</g>
					<g>
						<g>
							<path d="M495.1,300.2c1.1-1.2,1-3.1-0.2-4.2c-1.2-1.1-3.1-1-4.2,0.2c-1.1,1.2-1,3.1,0.2,4.2
								S494,301.4,495.1,300.2z"/>
						</g>
					</g>
					<g>
						<g>
							<path d="M572.6,132c1.1-1.2,1-3.1-0.2-4.2c-1.2-1.1-3.1-1-4.2,0.2s-1,3.1,0.2,4.2
								C569.6,133.3,571.5,133.2,572.6,132z"/>
						</g>
					</g>
					<g>
						<g>
							<path d="M573.3,117.7c1.1-1.2,1-3.1-0.2-4.2c-1.2-1.1-3.1-1-4.2,0.2c-1.1,1.2-1,3.1,0.2,4.2
								C570.3,119,572.2,119,573.3,117.7z"/>
						</g>
					</g>
					<g>
						<g>
							<path d="M485.1,308.9c1.1-1.2,1-3.1-0.2-4.2s-3.1-1-4.2,0.2c-1.1,1.2-1,3.1,0.2,4.2
								C482.1,310.2,484,310.1,485.1,308.9z"/>
						</g>
					</g>
					<g>
						<g>
							<path d="M577.1,94.6c1.1-1.2,1-3.1-0.2-4.2c-1.2-1.1-3.1-1-4.2,0.2c-1.1,1.2-1,3.1,0.2,4.2
								C574.1,95.9,576,95.8,577.1,94.6z"/>
						</g>
					</g>
					<g>
						<g>
							<path d="M508.8,323.4c1.1-1.2,1-3.1-0.2-4.2c-1.2-1.1-3.1-1-4.2,0.2c-1.1,1.2-1,3.1,0.2,4.2
								C505.8,324.7,507.7,324.6,508.8,323.4z"/>
						</g>
					</g>
					<g>
						<g>
							<path d="M499,287.7c1.1-1.2,1-3.1-0.2-4.2s-3.1-1-4.2,0.2c-1.1,1.2-1,3.1,0.2,4.2
								C496,289.1,497.9,289,499,287.7z"/>
						</g>
					</g>
					<g>
						<g>
							<path d="M555.3,161.3c1.1-1.2,1-3.1-0.2-4.2c-1.2-1.1-3.1-1-4.2,0.2c-1.1,1.2-1,3.1,0.2,4.2
								C552.3,162.7,554.2,162.6,555.3,161.3z"/>
						</g>
					</g>
					<g>
						<g>
							<path d="M515.7,310.1c1.1-1.2,1-3.1-0.2-4.2c-1.2-1.1-3.1-1-4.2,0.2c-1.1,1.2-1,3.1,0.2,4.2
								C512.7,311.5,514.6,311.4,515.7,310.1z"/>
						</g>
					</g>
					<g>
						<g>
							<path d="M552.2,205c1.1-1.2,1-3.1-0.2-4.2s-3.1-1-4.2,0.2c-1.1,1.2-1,3.1,0.2,4.2
								C549.2,206.3,551.1,206.2,552.2,205z"/>
						</g>
					</g>
					<g>
						<g>
							<path d="M573.7,145.1c1.1-1.2,1-3.1-0.2-4.2s-3.1-1-4.2,0.2c-1.1,1.2-1,3.1,0.2,4.2
								C570.7,146.4,572.6,146.3,573.7,145.1z"/>
						</g>
					</g>
					<g>
						<g>
							<path d="M513.8,268.6c1.1-1.2,1-3.1-0.2-4.2c-1.2-1.1-3.1-1-4.2,0.2c-1.1,1.2-1,3.1,0.2,4.2
								S512.7,269.8,513.8,268.6z"/>
						</g>
					</g>
					<g>
						<g>
							<path d="M508.6,297.8c1.1-1.2,1-3.1-0.2-4.2c-1.2-1.1-3.1-1-4.2,0.2c-1.1,1.2-1,3.1,0.2,4.2
								C505.6,299.1,507.5,299,508.6,297.8z"/>
						</g>
					</g>
					<g>
						<g>
							<path d="M566.6,170.5c1.1-1.2,1-3.1-0.2-4.2c-1.2-1.1-3.1-1-4.2,0.2c-1.1,1.2-1,3.1,0.2,4.2
								C563.6,171.8,565.5,171.7,566.6,170.5z"/>
						</g>
					</g>
					<g>
						<g>
							<path d="M538.9,202.6c1.1-1.2,1-3.1-0.2-4.2c-1.2-1.1-3.1-1-4.2,0.2c-1.1,1.2-1,3.1,0.2,4.2
								C535.9,203.9,537.8,203.8,538.9,202.6z"/>
						</g>
					</g>
					<g>
						<g>
							<path d="M512.9,281.7c1.1-1.2,1-3.1-0.2-4.2c-1.2-1.1-3.1-1-4.2,0.2c-1.1,1.2-1,3.1,0.2,4.2
								C509.9,283,511.8,282.9,512.9,281.7z"/>
						</g>
					</g>
					<g>
						<g>
							<path d="M499.6,275.5c1.1-1.2,1-3.1-0.2-4.2s-3.1-1-4.2,0.2c-1.1,1.2-1,3.1,0.2,4.2
								C496.6,276.8,498.5,276.7,499.6,275.5z"/>
						</g>
					</g>
					<g>
						<g>
							<path d="M528.2,274c1.1-1.2,1-3.1-0.2-4.2c-1.2-1.1-3.1-1-4.2,0.2s-1,3.1,0.2,4.2S527.1,275.3,528.2,274z"/>
						</g>
					</g>
					<g>
						<g>
							<path d="M560.5,134.9c1.1-1.2,1-3.1-0.2-4.2c-1.2-1.1-3.1-1-4.2,0.2c-1.1,1.2-1,3.1,0.2,4.2
								S559.4,136.1,560.5,134.9z"/>
						</g>
					</g>
					<g>
						<g>
							<path d="M565.3,154c1.1-1.2,1-3.1-0.2-4.2c-1.2-1.1-3.1-1-4.2,0.2c-1.1,1.2-1,3.1,0.2,4.2
								C562.3,155.4,564.2,155.3,565.3,154z"/>
						</g>
					</g>
					<g>
						<g>
							<path d="M503.4,251.9c1.1-1.2,1-3.1-0.2-4.2c-1.2-1.1-3.1-1-4.2,0.2c-1.1,1.2-1,3.1,0.2,4.2
								C500.4,253.2,502.3,253.1,503.4,251.9z"/>
						</g>
					</g>
					<g>
						<g>
							<path d="M502.1,312.4c1.1-1.2,1-3.1-0.2-4.2c-1.2-1.1-3.1-1-4.2,0.2c-1.1,1.2-1,3.1,0.2,4.2
								S501,313.7,502.1,312.4z"/>
						</g>
					</g>
					<g>
						<g>
							<path d="M536.4,228.6c1.1-1.2,1-3.1-0.2-4.2c-1.2-1.1-3.1-1-4.2,0.2c-1.1,1.2-1,3.1,0.2,4.2
								S535.3,229.8,536.4,228.6z"/>
						</g>
					</g>
					<g>
						<g>
							<path d="M553.7,175c1.1-1.2,1-3.1-0.2-4.2c-1.2-1.1-3.1-1-4.2,0.2c-1.1,1.2-1,3.1,0.2,4.2
								S552.6,176.2,553.7,175z"/>
						</g>
					</g>
					<g>
						<g>
							<path d="M541.4,242.9c1.1-1.2,1-3.1-0.2-4.2c-1.2-1.1-3.1-1-4.2,0.2c-1.1,1.2-1,3.1,0.2,4.2
								S540.3,244.2,541.4,242.9z"/>
						</g>
					</g>
					<g>
						<g>
							<path d="M526.5,262.7c1.1-1.2,1-3.1-0.2-4.2c-1.2-1.1-3.1-1-4.2,0.2c-1.1,1.2-1,3.1,0.2,4.2
								C523.5,264,525.4,263.9,526.5,262.7z"/>
						</g>
					</g>
					<g>
						<g>
							<path d="M500.6,262.8c1.1-1.2,1-3.1-0.2-4.2c-1.2-1.1-3.1-1-4.2,0.2c-1.1,1.2-1,3.1,0.2,4.2
								C497.6,264.1,499.5,264,500.6,262.8z"/>
						</g>
					</g>
					<g>
						<g>
							<path d="M555.3,146.4c1.1-1.2,1-3.1-0.2-4.2c-1.2-1.1-3.1-1-4.2,0.2c-1.1,1.2-1,3.1,0.2,4.2
								C552.3,147.7,554.2,147.6,555.3,146.4z"/>
						</g>
					</g>
					<g>
						<g>
							<path d="M528.1,237.5c1.1-1.2,1-3.1-0.2-4.2c-1.2-1.1-3.1-1-4.2,0.2c-1.1,1.2-1,3.1,0.2,4.2
								C525.1,238.8,527,238.7,528.1,237.5z"/>
						</g>
					</g>
					<g>
						<g>
							<path d="M562.9,185.6c1.1-1.2,1-3.1-0.2-4.2c-1.2-1.1-3.1-1-4.2,0.2c-1.1,1.2-1,3.1,0.2,4.2
								S561.8,186.8,562.9,185.6z"/>
						</g>
					</g>
					<g>
						<g>
							<path d="M491.6,320.6c1.1-1.2,1-3.1-0.2-4.2c-1.2-1.1-3.1-1-4.2,0.2c-1.1,1.2-1,3.1,0.2,4.2
								S490.5,321.8,491.6,320.6z"/>
						</g>
					</g>
					<g>
						<g>
							<path d="M516.4,255.4c1.1-1.2,1-3.1-0.2-4.2c-1.2-1.1-3.1-1-4.2,0.2c-1.1,1.2-1,3.1,0.2,4.2
								C513.4,256.7,515.3,256.6,516.4,255.4z"/>
						</g>
					</g>
					<g>
						<g>
							<path d="M551.2,192.9c1.1-1.2,1-3.1-0.2-4.2s-3.1-1-4.2,0.2c-1.1,1.2-1,3.1,0.2,4.2
								C548.2,194.3,550.1,194.2,551.2,192.9z"/>
						</g>
					</g>
					<g>
						<g>
							<path d="M531,249.8c1.1-1.2,1-3.1-0.2-4.2c-1.2-1.1-3.1-1-4.2,0.2c-1.1,1.2-1,3.1,0.2,4.2
								C528,251.1,529.9,251,531,249.8z"/>
						</g>
					</g>
					<g>
						<g>
							<path d="M519.2,291.1c1.1-1.2,1-3.1-0.2-4.2s-3.1-1-4.2,0.2c-1.1,1.2-1,3.1,0.2,4.2
								C516.2,292.5,518.1,292.4,519.2,291.1z"/>
						</g>
					</g>
					<g>
						<g>
							<path d="M515.8,232.1c1.1-1.2,1-3.1-0.2-4.2s-3.1-1-4.2,0.2c-1.1,1.2-1,3.1,0.2,4.2
								C512.8,233.4,514.7,233.3,515.8,232.1z"/>
						</g>
					</g>
					<g>
						<g>
							<path d="M512.4,243.9c1.1-1.2,1-3.1-0.2-4.2c-1.2-1.1-3.1-1-4.2,0.2c-1.1,1.2-1,3.1,0.2,4.2
								S511.3,245.2,512.4,243.9z"/>
						</g>
					</g>
					<g>
						<g>
							<path d="M542.8,216.5c1.1-1.2,1-3.1-0.2-4.2c-1.2-1.1-3.1-1-4.2,0.2c-1.1,1.2-1,3.1,0.2,4.2
								S541.7,217.7,542.8,216.5z"/>
						</g>
					</g>
					<g>
						<g>
							<path d="M520.3,222.1c1.1-1.2,1-3.1-0.2-4.2c-1.2-1.1-3.1-1-4.2,0.2c-1.1,1.2-1,3.1,0.2,4.2
								C517.3,223.5,519.2,223.4,520.3,222.1z"/>
						</g>
					</g>
					<g>
						<g>
							<path d="M543.7,184.7c1.1-1.2,1-3.1-0.2-4.2c-1.2-1.1-3.1-1-4.2,0.2c-1.1,1.2-1,3.1,0.2,4.2
								S542.6,185.9,543.7,184.7z"/>
						</g>
					</g>
					<g>
						<g>
							<path d="M530.9,214.8c1.1-1.2,1-3.1-0.2-4.2s-3.1-1-4.2,0.2c-1.1,1.2-1,3.1,0.2,4.2
								C527.9,216.1,529.8,216,530.9,214.8z"/>
						</g>
					</g>
				</g>
			</g>
			<path fill="none" stroke="#1F140F" stroke-width="1.441" stroke-miterlimit="10" d="M577.3,80.1c7,6.3-2.9,60.8-7.3,73.8
				c-4.5,13-51.4,142.7-54.6,155c-3.3,12.2-6.5,12.5-6.5,12.5c-13.1-3.2-25.4-5.9-36.9-8.2c0,0,21.6-59,41.2-92
				C532.7,188.2,575.4,78.4,577.3,80.1z"/>
			<path class="pretina color3" fill="#c4c4c4" d="M477.1,315.7l-5.7-2.1c0.2-0.6,22-59.6,41.5-92.5c11.5-19.4,31.2-65.9,45.6-99.8
				c17.9-42.1,18.3-38.6,18.3-38.6s-4.4,21.5-12.7,41c-14.5,34.1-34.3,80.8-45.9,100.6C498.8,256.6,477.3,315.1,477.1,315.7"/>
			<path fill="none" stroke="#1F140F" stroke-width="1.441" stroke-miterlimit="10" d="M477.1,315.7l-5.7-2.1
				c0.2-0.6,22-59.6,41.5-92.5c11.5-19.4,31.2-65.9,45.6-99.8c17.9-42.1,18.3-38.6,18.3-38.6s-4.4,21.5-12.7,41
				c-14.5,34.1-34.3,80.8-45.9,100.6C498.8,256.6,477.3,315.1,477.1,315.7z"/>
			<path fill="#D7D9DD" d="M58.3,61.4c0,0,188.8,120.9,298.1,116V231C247.1,235.9,58.3,115,58.3,115V61.4z"/>
			<path fill="none" stroke="#1F140F" stroke-width="1.441" stroke-miterlimit="2" d="M58.3,61.4c0,0,188.8,120.9,298.1,116V231
				C247.1,235.9,58.3,115,58.3,115V61.4z"/>
		</g>
		<path fill="none" stroke="#1F140F" stroke-width="1.441" stroke-miterlimit="10" d="M32.5,352.5l0.4-1.2 M34.8,310.6l58-174.9"/>
		
			<line fill="none" stroke="#1F140F" stroke-width="1.441" stroke-miterlimit="10" stroke-dasharray="1.472,2.2" x1="34" y1="347.9" x2="101.8" y2="144.3"/>
		<line fill="none" stroke="#1F140F" stroke-width="1.441" stroke-miterlimit="10" x1="102.3" y1="142.6" x2="102.7" y2="141.4"/>
		<line fill="none" stroke="#1F140F" stroke-width="1.441" stroke-miterlimit="10" x1="184" y1="183.1" x2="182" y2="199.5"/>
		<line fill="none" stroke="#1F140F" stroke-width="1.441" stroke-miterlimit="10" x1="115.6" y1="148.2" x2="113.6" y2="164.7"/>
		<g>
			<path fill="none" stroke="#1F140F" stroke-width="1.441" stroke-miterlimit="10" stroke-dasharray="1.458,2.178" d="M113.6,164.7
				c0,0,42.3,24.5,68.4,34.3"/>
		</g>
		
			<line fill="none" stroke="#1F140F" stroke-width="1.441" stroke-miterlimit="10" stroke-dasharray="0.689,0.689" x1="34.2" y1="310.5" x2="47.8" y2="317.4"/>
		
			<line fill="none" stroke="#1F140F" stroke-width="1.441" stroke-miterlimit="10" stroke-dasharray="0.689,0.689" x1="83.6" y1="167.4" x2="97.2" y2="174.2"/>
		<path fill="none" stroke="#1F140F" stroke-width="1.441" stroke-miterlimit="10" d="M580.6,352.5l-0.4-1.2 M578.3,310.6
			l-30.9-93.2"/>
		
			<line fill="none" stroke="#1F140F" stroke-width="1.441" stroke-miterlimit="10" stroke-dasharray="1.504,2.241" x1="579" y1="347.8" x2="542.1" y2="236.8"/>
		<line fill="none" stroke="#1F140F" stroke-width="1.441" stroke-miterlimit="10" x1="541.5" y1="235" x2="541.1" y2="233.9"/>
		
			<line fill="none" stroke="#1F140F" stroke-width="1.441" stroke-miterlimit="10" stroke-dasharray="0.689,0.689" x1="578.9" y1="310.5" x2="565.3" y2="317.4"/>
		<g>
			<path fill="none" stroke="#1F140F" stroke-width="1.441" stroke-miterlimit="10" d="M313.6,449.1c0,0,25.4,7.4,33.6,11.3
				 M262,461.2c0,0,4.3,0.1,39.1-10.9V344.7"/>
		</g>
		<line fill="none" stroke="#1F140F" stroke-width="1.441" stroke-miterlimit="10" x1="307.9" y1="321.5" x2="307.9" y2="226.6"/>
		<path fill="#FFFFFF" d="M319.3,228.6h-6.1v-0.2h6.1V228.6z M319.3,233.5h-6.1v-3.7h6.1V233.5z M319.3,238.4h-6.1v-3.7h6.1V238.4z
			 M319.3,243.3h-6.1v-3.7h6.1V243.3z M319.3,248.2h-6.1v-3.7h6.1V248.2z M319.3,253.1h-6.1v-3.7h6.1V253.1z M319.3,258h-6.1v-3.7
			h6.1V258z M319.3,262.9h-6.1v-3.7h6.1V262.9z M319.3,267.8h-6.1v-3.7h6.1V267.8z M319.3,272.7h-6.1V269h6.1V272.7z M319.3,277.6
			h-6.1v-3.7h6.1V277.6z M319.3,282.4h-6.1v-3.7h6.1V282.4z M319.3,287.3h-6.1v-3.7h6.1V287.3z M319.3,292.2h-6.1v-3.7h6.1V292.2z
			 M319.3,297.1h-6.1v-3.7h6.1V297.1z M319.3,302h-6.1v-3.7h6.1V302z M319.3,306.9h-6.1v-3.7h6.1V306.9z M319.3,311.8h-6.1v-3.7h6.1
			V311.8z"/>
		<path fill="none" stroke="#1F140F" stroke-width="0.72" stroke-miterlimit="10" d="M319.3,228.6h-6.1v-0.2h6.1V228.6z
			 M319.3,233.5h-6.1v-3.7h6.1V233.5z M319.3,238.4h-6.1v-3.7h6.1V238.4z M319.3,243.3h-6.1v-3.7h6.1V243.3z M319.3,248.2h-6.1v-3.7
			h6.1V248.2z M319.3,253.1h-6.1v-3.7h6.1V253.1z M319.3,258h-6.1v-3.7h6.1V258z M319.3,262.9h-6.1v-3.7h6.1V262.9z M319.3,267.8
			h-6.1v-3.7h6.1V267.8z M319.3,272.7h-6.1V269h6.1V272.7z M319.3,277.6h-6.1v-3.7h6.1V277.6z M319.3,282.4h-6.1v-3.7h6.1V282.4z
			 M319.3,287.3h-6.1v-3.7h6.1V287.3z M319.3,292.2h-6.1v-3.7h6.1V292.2z M319.3,297.1h-6.1v-3.7h6.1V297.1z M319.3,302h-6.1v-3.7
			h6.1V302z M319.3,306.9h-6.1v-3.7h6.1V306.9z M319.3,311.8h-6.1v-3.7h6.1V311.8z"/>
		<g>
			<path fill="#FFFFFF" d="M392.3,294.6c-1,0-1.9,0-2.9,0l-0.8,0l0-6.1h0.8c1,0,1.9,0,2.9,0L392.3,294.6z M383.8,294.6l-0.1-6.1
				c1.2,0,2.4,0,3.7,0l0,6.1C386.2,294.6,385,294.6,383.8,294.6 M397.1,294.6c-1.2,0-2.4-0.1-3.6-0.1l0.1-6.1c1.2,0,2.5,0,3.7,0.1
				L397.1,294.6z M379,294.7l-0.2-6.1c1.2,0,2.4-0.1,3.7-0.1l0.2,6.1C381.4,294.7,380.2,294.7,379,294.7 M402,294.8
				c-1.2,0-2.4-0.1-3.6-0.1l0.2-6.1c1.2,0,2.4,0.1,3.7,0.1L402,294.8z M374.1,295l-0.3-6.1c1.2-0.1,2.4-0.1,3.7-0.2l0.3,6.1
				C376.5,294.8,375.3,294.9,374.1,295 M406.8,295c-1.2-0.1-2.4-0.1-3.6-0.2l0.3-6.1c1.2,0.1,2.4,0.1,3.7,0.2L406.8,295z
				 M369.3,295.3l-0.5-6.1c1.2-0.1,2.4-0.2,3.7-0.3l0.4,6.1C371.7,295.1,370.5,295.2,369.3,295.3 M411.7,295.3
				c-1.2-0.1-2.4-0.2-3.6-0.2l0.3-6.1c1.2,0.1,2.4,0.1,3.7,0.2L411.7,295.3z M416.5,295.6c-1.2-0.1-2.4-0.2-3.6-0.3l0.4-6.1
				c1.2,0.1,2.4,0.2,3.7,0.3L416.5,295.6z M364.5,295.7l-0.6-6.1c1.2-0.1,2.4-0.2,3.7-0.3l0.5,6.1
				C366.9,295.5,365.7,295.6,364.5,295.7 M421.4,296c-1.2-0.1-2.4-0.2-3.6-0.3l0.5-6.1c1.2,0.1,2.4,0.2,3.7,0.3L421.4,296z
				 M359.7,296.3l-0.8-6.1c1.2-0.2,2.4-0.3,3.7-0.4l0.7,6.1C362.1,296,360.9,296.1,359.7,296.3 M426.2,296.5
				c-1.2-0.1-2.4-0.2-3.6-0.3l0.6-6.1c1.2,0.1,2.4,0.2,3.7,0.3L426.2,296.5z M355,296.9l-0.9-6c1.2-0.2,2.4-0.4,3.7-0.5l0.8,6.1
				C357.3,296.6,356.1,296.8,355,296.9 M431,297c-1.2-0.1-2.4-0.3-3.6-0.4l0.6-6.1c1.2,0.1,2.4,0.3,3.7,0.4L431,297z M435.9,297.6
				c-1.2-0.1-2.4-0.3-3.6-0.4l0.7-6.1c1.2,0.1,2.4,0.3,3.7,0.4L435.9,297.6z M350.3,297.8l-1.1-6c1.2-0.2,2.4-0.4,3.7-0.7l1,6
				C352.6,297.3,351.4,297.5,350.3,297.8 M440.7,298.2c-1.2-0.2-2.4-0.3-3.6-0.5l0.7-6.1c1.2,0.1,2.4,0.3,3.7,0.5L440.7,298.2z
				 M443.1,298.5l-1.2-0.2l0.8-6.1l1.2,0.2L443.1,298.5z M345.6,298.7l-1.4-6c1.1-0.3,2.4-0.5,3.7-0.8l1.2,6
				C347.8,298.2,346.7,298.5,345.6,298.7 M341,299.9l-1.6-5.9c1.1-0.3,2.3-0.6,3.7-0.9l1.4,5.9C343.2,299.3,342,299.6,341,299.9
				 M336.5,301.3l-2-5.8c1.1-0.4,2.4-0.8,3.6-1.2l1.7,5.9C338.7,300.6,337.5,300.9,336.5,301.3 M332.4,302.9l-2.9-5.4
				c0.1-0.1,1.3-0.7,3.8-1.6l2.1,5.7C333.4,302.4,332.4,302.9,332.4,302.9"/>
			<path fill="none" stroke="#1F140F" stroke-width="0.72" stroke-miterlimit="10" d="M392.3,294.6c-1,0-1.9,0-2.9,0l-0.8,0l0-6.1
				h0.8c1,0,1.9,0,2.9,0L392.3,294.6z M383.8,294.6l-0.1-6.1c1.2,0,2.4,0,3.7,0l0,6.1C386.2,294.6,385,294.6,383.8,294.6z
				 M397.1,294.6c-1.2,0-2.4-0.1-3.6-0.1l0.1-6.1c1.2,0,2.5,0,3.7,0.1L397.1,294.6z M379,294.7l-0.2-6.1c1.2,0,2.4-0.1,3.7-0.1
				l0.2,6.1C381.4,294.7,380.2,294.7,379,294.7z M402,294.8c-1.2,0-2.4-0.1-3.6-0.1l0.2-6.1c1.2,0,2.4,0.1,3.7,0.1L402,294.8z
				 M374.1,295l-0.3-6.1c1.2-0.1,2.4-0.1,3.7-0.2l0.3,6.1C376.5,294.8,375.3,294.9,374.1,295z M406.8,295c-1.2-0.1-2.4-0.1-3.6-0.2
				l0.3-6.1c1.2,0.1,2.4,0.1,3.7,0.2L406.8,295z M369.3,295.3l-0.5-6.1c1.2-0.1,2.4-0.2,3.7-0.3l0.4,6.1
				C371.7,295.1,370.5,295.2,369.3,295.3z M411.7,295.3c-1.2-0.1-2.4-0.2-3.6-0.2l0.3-6.1c1.2,0.1,2.4,0.1,3.7,0.2L411.7,295.3z
				 M416.5,295.6c-1.2-0.1-2.4-0.2-3.6-0.3l0.4-6.1c1.2,0.1,2.4,0.2,3.7,0.3L416.5,295.6z M364.5,295.7l-0.6-6.1
				c1.2-0.1,2.4-0.2,3.7-0.3l0.5,6.1C366.9,295.5,365.7,295.6,364.5,295.7z M421.4,296c-1.2-0.1-2.4-0.2-3.6-0.3l0.5-6.1
				c1.2,0.1,2.4,0.2,3.7,0.3L421.4,296z M359.7,296.3l-0.8-6.1c1.2-0.2,2.4-0.3,3.7-0.4l0.7,6.1C362.1,296,360.9,296.1,359.7,296.3z
				 M426.2,296.5c-1.2-0.1-2.4-0.2-3.6-0.3l0.6-6.1c1.2,0.1,2.4,0.2,3.7,0.3L426.2,296.5z M355,296.9l-0.9-6
				c1.2-0.2,2.4-0.4,3.7-0.5l0.8,6.1C357.3,296.6,356.1,296.8,355,296.9z M431,297c-1.2-0.1-2.4-0.3-3.6-0.4l0.6-6.1
				c1.2,0.1,2.4,0.3,3.7,0.4L431,297z M435.9,297.6c-1.2-0.1-2.4-0.3-3.6-0.4l0.7-6.1c1.2,0.1,2.4,0.3,3.7,0.4L435.9,297.6z
				 M350.3,297.8l-1.1-6c1.2-0.2,2.4-0.4,3.7-0.7l1,6C352.6,297.3,351.4,297.5,350.3,297.8z M440.7,298.2c-1.2-0.2-2.4-0.3-3.6-0.5
				l0.7-6.1c1.2,0.1,2.4,0.3,3.7,0.5L440.7,298.2z M443.1,298.5l-1.2-0.2l0.8-6.1l1.2,0.2L443.1,298.5z M345.6,298.7l-1.4-6
				c1.1-0.3,2.4-0.5,3.7-0.8l1.2,6C347.8,298.2,346.7,298.5,345.6,298.7z M341,299.9l-1.6-5.9c1.1-0.3,2.3-0.6,3.7-0.9l1.4,5.9
				C343.2,299.3,342,299.6,341,299.9z M336.5,301.3l-2-5.8c1.1-0.4,2.4-0.8,3.6-1.2l1.7,5.9C338.7,300.6,337.5,300.9,336.5,301.3z
				 M332.4,302.9l-2.9-5.4c0.1-0.1,1.3-0.7,3.8-1.6l2.1,5.7C333.4,302.4,332.4,302.9,332.4,302.9z"/>
			<path fill="none" stroke="#1F140F" stroke-width="0.879" stroke-dasharray="0.243,0.243" d="M495.3,289c0.1-0.5,0.1-1,0-1.4"/>
			
				<line fill="none" stroke="#1F140F" stroke-width="0.879" stroke-dasharray="0.24,0.24" x1="495.5" y1="285.6" x2="502.3" y2="269.2"/>
			
				<line fill="none" stroke="#1F140F" stroke-width="0.879" stroke-dasharray="0.229,0.229" x1="501.6" y1="267.9" x2="501" y2="267.6"/>
			
				<line fill="none" stroke="#1F140F" stroke-width="0.879" stroke-dasharray="0.231,0.231" x1="499.7" y1="268.3" x2="493" y2="284.8"/>
			<path fill="none" stroke="#1F140F" stroke-width="0.879" stroke-dasharray="0.257,0.257" d="M491.7,286.4c-0.4,0.3-0.7,0.7-1,1.1
				"/>
			<path fill="none" stroke="#1F140F" stroke-width="0.879" stroke-dasharray="0.204,0.204" d="M490,289.4c0,0.7,0.4,1.2,0.9,1.6"/>
			<path fill="none" stroke="#1F140F" stroke-width="0.879" stroke-dasharray="0.214,0.214" d="M492.8,291.7c0.6,0,1.3-0.2,1.8-0.8"
				/>
			<path fill="none" stroke="#1F140F" stroke-width="0.879" d="M494.6,290.8c0.1-0.2,0.3-0.4,0.4-0.7c0.1-0.2,0.2-0.5,0.2-0.7
				 M491,291.1c0.2,0.1,0.4,0.3,0.7,0.3c0.2,0.1,0.5,0.2,0.7,0.2 M490.5,287.7c-0.1,0.2-0.3,0.4-0.3,0.7c-0.1,0.3-0.2,0.5-0.2,0.7
				 M492.9,285l-0.3,0.7c-0.2,0.1-0.4,0.3-0.6,0.4 M500.9,267.6l-0.7-0.3l-0.3,0.7 M502.4,269l0.3-0.7l-0.7-0.3 M495.3,287.4
				c0-0.3-0.1-0.5-0.2-0.7l0.3-0.7"/>
			<path fill="#5C5B5F" d="M333.8,199.5c0.7,6.1-3.6,11.6-9.7,12.3c-6.1,0.7-11.6-3.6-12.3-9.7c-0.7-6.1,3.6-11.6,9.7-12.3
				C327.6,189.1,333.1,193.4,333.8,199.5"/>
			<path fill="none" stroke="#1F140F" stroke-width="0.879" d="M333.8,199.5c0.7,6.1-3.6,11.6-9.7,12.3c-6.1,0.7-11.6-3.6-12.3-9.7
				c-0.7-6.1,3.6-11.6,9.7-12.3C327.6,189.1,333.1,193.4,333.8,199.5z"/>
			<path fill="#5C5B5F" d="M329.8,200c0.5,3.9-2.3,7.4-6.2,7.9c-3.9,0.5-7.4-2.3-7.9-6.2c-0.5-3.9,2.3-7.4,6.2-7.9
				C325.8,193.3,329.4,196.1,329.8,200"/>
			<path fill="none" stroke="#1F140F" stroke-width="0.879" d="M329.8,200c0.5,3.9-2.3,7.4-6.2,7.9c-3.9,0.5-7.4-2.3-7.9-6.2
				c-0.5-3.9,2.3-7.4,6.2-7.9C325.8,193.3,329.4,196.1,329.8,200z"/>
		</g>
		<path fill="none" stroke="#FFFFFF" stroke-width="1.173" stroke-linecap="round" d="M325.1,198.5l-4.6,4.6 M320.5,198.5l4.6,4.6"
			/>
		<g>
			<path fill="#5C5B5F" d="M306,35.9c0.6,4.8-2.9,9.1-7.6,9.6c-4.8,0.6-9.1-2.9-9.6-7.6c-0.6-4.8,2.9-9.1,7.6-9.6
				C301.1,27.7,305.4,31.1,306,35.9"/>
			<path fill="none" stroke="#1F140F" stroke-width="0.879" d="M306,35.9c0.6,4.8-2.9,9.1-7.6,9.6c-4.8,0.6-9.1-2.9-9.6-7.6
				c-0.6-4.8,2.9-9.1,7.6-9.6C301.1,27.7,305.4,31.1,306,35.9z"/>
			<path fill="#5C5B5F" d="M302.9,36.2c0.4,3.1-1.8,5.8-4.9,6.2c-3.1,0.4-5.8-1.8-6.2-4.9c-0.4-3.1,1.8-5.8,4.9-6.2
				C299.8,31,302.6,33.2,302.9,36.2"/>
			<path fill="none" stroke="#1F140F" stroke-width="0.879" d="M302.9,36.2c0.4,3.1-1.8,5.8-4.9,6.2c-3.1,0.4-5.8-1.8-6.2-4.9
				c-0.4-3.1,1.8-5.8,4.9-6.2C299.8,31,302.6,33.2,302.9,36.2z"/>
		</g>
		<path fill="none" stroke="#FFFFFF" stroke-width="1.173" stroke-linecap="round" d="M299.2,35.1l-3.6,3.6 M295.5,35l3.6,3.6"/>
		<g>
			<path fill="#5C5B5F" d="M356.3,35.9c0.6,4.8-2.9,9.1-7.6,9.6c-4.8,0.6-9.1-2.9-9.6-7.6c-0.6-4.8,2.9-9.1,7.6-9.6
				C351.4,27.7,355.8,31.1,356.3,35.9"/>
			<path fill="none" stroke="#1F140F" stroke-width="0.879" d="M356.3,35.9c0.6,4.8-2.9,9.1-7.6,9.6c-4.8,0.6-9.1-2.9-9.6-7.6
				c-0.6-4.8,2.9-9.1,7.6-9.6C351.4,27.7,355.8,31.1,356.3,35.9z"/>
			<path fill="#5C5B5F" d="M353.2,36.2c0.4,3.1-1.8,5.8-4.9,6.2s-5.8-1.8-6.2-4.9c-0.4-3.1,1.8-5.8,4.9-6.2
				C350.1,31,352.9,33.2,353.2,36.2"/>
			<path fill="none" stroke="#1F140F" stroke-width="0.879" d="M353.2,36.2c0.4,3.1-1.8,5.8-4.9,6.2s-5.8-1.8-6.2-4.9
				c-0.4-3.1,1.8-5.8,4.9-6.2C350.1,31,352.9,33.2,353.2,36.2z"/>
		</g>
		<path fill="none" stroke="#FFFFFF" stroke-width="1.173" stroke-linecap="round" d="M349.5,35.1l-3.6,3.6 M345.9,35l3.6,3.6"/>
		<g>
			<path fill="#5C5B5F" d="M555,183.7c0.6,4.8-2.9,9.1-7.6,9.6c-4.8,0.6-9.1-2.9-9.6-7.6c-0.6-4.8,2.9-9.1,7.6-9.6
				C550.1,175.5,554.4,179,555,183.7"/>
			<path fill="none" stroke="#1F140F" stroke-width="0.879" d="M555,183.7c0.6,4.8-2.9,9.1-7.6,9.6c-4.8,0.6-9.1-2.9-9.6-7.6
				c-0.6-4.8,2.9-9.1,7.6-9.6C550.1,175.5,554.4,179,555,183.7z"/>
			<path fill="#5C5B5F" d="M551.9,184.1c0.4,3.1-1.8,5.8-4.9,6.2c-3.1,0.4-5.8-1.8-6.2-4.9c-0.4-3.1,1.8-5.8,4.9-6.2
				C548.7,178.8,551.5,181,551.9,184.1"/>
			<path fill="none" stroke="#1F140F" stroke-width="0.879" d="M551.9,184.1c0.4,3.1-1.8,5.8-4.9,6.2c-3.1,0.4-5.8-1.8-6.2-4.9
				c-0.4-3.1,1.8-5.8,4.9-6.2C548.7,178.8,551.5,181,551.9,184.1z"/>
		</g>
		<path fill="none" stroke="#FFFFFF" stroke-width="1.173" stroke-linecap="round" d="M548.1,182.9l-3.6,3.6 M544.5,182.9l3.6,3.6"
			/>
		<g>
			<path fill="#5C5B5F" d="M537.9,223.4c0.6,4.8-2.9,9.1-7.6,9.6c-4.8,0.6-9.1-2.9-9.6-7.6c-0.6-4.8,2.9-9.1,7.6-9.6
				C533,215.2,537.3,218.6,537.9,223.4"/>
			<path fill="none" stroke="#1F140F" stroke-width="0.879" d="M537.9,223.4c0.6,4.8-2.9,9.1-7.6,9.6c-4.8,0.6-9.1-2.9-9.6-7.6
				c-0.6-4.8,2.9-9.1,7.6-9.6C533,215.2,537.3,218.6,537.9,223.4z"/>
			<path fill="#5C5B5F" d="M534.8,223.7c0.4,3.1-1.8,5.8-4.9,6.2c-3.1,0.4-5.8-1.8-6.2-4.9c-0.4-3.1,1.8-5.8,4.9-6.2
				C531.7,218.5,534.5,220.7,534.8,223.7"/>
			<path fill="none" stroke="#1F140F" stroke-width="0.879" d="M534.8,223.7c0.4,3.1-1.8,5.8-4.9,6.2c-3.1,0.4-5.8-1.8-6.2-4.9
				c-0.4-3.1,1.8-5.8,4.9-6.2C531.7,218.5,534.5,220.7,534.8,223.7z"/>
		</g>
		<path fill="none" stroke="#FFFFFF" stroke-width="1.173" stroke-linecap="round" d="M531.1,222.6l-3.6,3.6 M527.4,222.6l3.6,3.6" />
</svg>
