<svg id="Capa_1" data-name="Capa 1" xmlns="http://www.w3.org/2000/svg" viewBox="0 0 58.86 204.54"><defs><style>.cls-1{fill:#5c5b5f;}.cls-2{fill:none;stroke:#5c5b5f;stroke-miterlimit:10;}</style></defs><title>titulos_bajo_cuello_01</title><path class="cls-1" d="M155.83,15.87a24.06,24.06,0,0,1,4-.31,6.68,6.68,0,0,1,4.54,1.34,4.39,4.39,0,0,1,1.41,3.39,4.74,4.74,0,0,1-1.25,3.45,6.67,6.67,0,0,1-4.94,1.78,7.19,7.19,0,0,1-1.68-.15v6.48h-2.09Zm2.09,7.8a7,7,0,0,0,1.73.17c2.52,0,4-1.23,4-3.46s-1.51-3.17-3.81-3.17a9.14,9.14,0,0,0-2,.17Z" transform="translate(-146.05 -14.83)"/><path class="cls-1" d="M169.2,26.77l-1.68,5.08h-2.16l5.5-16.17h2.52l5.52,16.17h-2.24l-1.72-5.08Zm5.3-1.64-1.58-4.65c-.36-1.06-.6-2-.84-2.95H172c-.24,1-.5,1.94-.81,2.92l-1.59,4.68Z" transform="translate(-146.05 -14.83)"/><path class="cls-1" d="M181.27,15.68h2.09V30.1h6.91v1.75h-9Z" transform="translate(-146.05 -14.83)"/><path class="cls-1" d="M195.22,26.77l-1.69,5.08h-2.16l5.5-16.17h2.52l5.52,16.17h-2.23L201,26.77Zm5.3-1.64-1.58-4.65c-.36-1.06-.6-2-.84-2.95h0c-.24,1-.51,1.94-.82,2.92l-1.58,4.68Z" transform="translate(-146.05 -14.83)"/><line class="cls-2" x1="0.5" x2="0.5" y2="204.54"/></svg>